<svg width="1512" height="1440" viewBox="0 0 1512 1440" fill="none" xmlns="http://www.w3.org/2000/svg">
<g opacity="0.4" clip-path="url(#clip0_0_8150)">
<mask id="mask0_0_8150" style="mask-type:alpha" maskUnits="userSpaceOnUse" x="0" y="0" width="1512" height="1447">
<rect width="1512" height="1446.7" fill="url(#paint0_radial_0_8150)"/>
</mask>
<g mask="url(#mask0_0_8150)">
<g clip-path="url(#clip1_0_8150)">
<mask id="path-3-inside-1_0_8150" fill="white">
<path d="M-12 0H84V96H-12V0Z"/>
</mask>
<path d="M84 96V97H85V96H84ZM83 0V96H85V0H83ZM84 95H-12V97H84V95Z" fill="#F4D0DC" mask="url(#path-3-inside-1_0_8150)"/>
<mask id="path-5-inside-2_0_8150" fill="white">
<path d="M84 0H180V96H84V0Z"/>
</mask>
<path d="M180 96V97H181V96H180ZM179 0V96H181V0H179ZM180 95H84V97H180V95Z" fill="#F4D0DC" mask="url(#path-5-inside-2_0_8150)"/>
<mask id="path-7-inside-3_0_8150" fill="white">
<path d="M180 0H276V96H180V0Z"/>
</mask>
<path d="M276 96V97H277V96H276ZM275 0V96H277V0H275ZM276 95H180V97H276V95Z" fill="#F4D0DC" mask="url(#path-7-inside-3_0_8150)"/>
<mask id="path-9-inside-4_0_8150" fill="white">
<path d="M276 0H372V96H276V0Z"/>
</mask>
<path d="M372 96V97H373V96H372ZM371 0V96H373V0H371ZM372 95H276V97H372V95Z" fill="#F4D0DC" mask="url(#path-9-inside-4_0_8150)"/>
<mask id="path-11-inside-5_0_8150" fill="white">
<path d="M372 0H468V96H372V0Z"/>
</mask>
<path d="M468 96V97H469V96H468ZM467 0V96H469V0H467ZM468 95H372V97H468V95Z" fill="#F4D0DC" mask="url(#path-11-inside-5_0_8150)"/>
<mask id="path-13-inside-6_0_8150" fill="white">
<path d="M468 0H564V96H468V0Z"/>
</mask>
<path d="M564 96V97H565V96H564ZM563 0V96H565V0H563ZM564 95H468V97H564V95Z" fill="#F4D0DC" mask="url(#path-13-inside-6_0_8150)"/>
<mask id="path-15-inside-7_0_8150" fill="white">
<path d="M564 0H660V96H564V0Z"/>
</mask>
<path d="M660 96V97H661V96H660ZM659 0V96H661V0H659ZM660 95H564V97H660V95Z" fill="#F4D0DC" mask="url(#path-15-inside-7_0_8150)"/>
<mask id="path-17-inside-8_0_8150" fill="white">
<path d="M660 0H756V96H660V0Z"/>
</mask>
<path d="M756 96V97H757V96H756ZM755 0V96H757V0H755ZM756 95H660V97H756V95Z" fill="#F4D0DC" mask="url(#path-17-inside-8_0_8150)"/>
<mask id="path-19-inside-9_0_8150" fill="white">
<path d="M756 0H852V96H756V0Z"/>
</mask>
<path d="M852 96V97H853V96H852ZM851 0V96H853V0H851ZM852 95H756V97H852V95Z" fill="#F4D0DC" mask="url(#path-19-inside-9_0_8150)"/>
<mask id="path-21-inside-10_0_8150" fill="white">
<path d="M852 0H948V96H852V0Z"/>
</mask>
<path d="M948 96V97H949V96H948ZM947 0V96H949V0H947ZM948 95H852V97H948V95Z" fill="#F4D0DC" mask="url(#path-21-inside-10_0_8150)"/>
<mask id="path-23-inside-11_0_8150" fill="white">
<path d="M948 0H1044V96H948V0Z"/>
</mask>
<path d="M1044 96V97H1045V96H1044ZM1043 0V96H1045V0H1043ZM1044 95H948V97H1044V95Z" fill="#F4D0DC" mask="url(#path-23-inside-11_0_8150)"/>
<mask id="path-25-inside-12_0_8150" fill="white">
<path d="M1044 0H1140V96H1044V0Z"/>
</mask>
<path d="M1140 96V97H1141V96H1140ZM1139 0V96H1141V0H1139ZM1140 95H1044V97H1140V95Z" fill="#F4D0DC" mask="url(#path-25-inside-12_0_8150)"/>
<mask id="path-27-inside-13_0_8150" fill="white">
<path d="M1140 0H1236V96H1140V0Z"/>
</mask>
<path d="M1236 96V97H1237V96H1236ZM1235 0V96H1237V0H1235ZM1236 95H1140V97H1236V95Z" fill="#F4D0DC" mask="url(#path-27-inside-13_0_8150)"/>
<mask id="path-29-inside-14_0_8150" fill="white">
<path d="M1236 0H1332V96H1236V0Z"/>
</mask>
<path d="M1332 96V97H1333V96H1332ZM1331 0V96H1333V0H1331ZM1332 95H1236V97H1332V95Z" fill="#F4D0DC" mask="url(#path-29-inside-14_0_8150)"/>
<mask id="path-31-inside-15_0_8150" fill="white">
<path d="M1332 0H1428V96H1332V0Z"/>
</mask>
<path d="M1428 96V97H1429V96H1428ZM1427 0V96H1429V0H1427ZM1428 95H1332V97H1428V95Z" fill="#F4D0DC" mask="url(#path-31-inside-15_0_8150)"/>
<mask id="path-33-inside-16_0_8150" fill="white">
<path d="M1428 0H1524V96H1428V0Z"/>
</mask>
<path d="M1524 96V97H1525V96H1524ZM1523 0V96H1525V0H1523ZM1524 95H1428V97H1524V95Z" fill="#F4D0DC" mask="url(#path-33-inside-16_0_8150)"/>
<mask id="path-35-inside-17_0_8150" fill="white">
<path d="M-12 96H84V192H-12V96Z"/>
</mask>
<path d="M84 192V193H85V192H84ZM83 96V192H85V96H83ZM84 191H-12V193H84V191Z" fill="#F4D0DC" mask="url(#path-35-inside-17_0_8150)"/>
<mask id="path-37-inside-18_0_8150" fill="white">
<path d="M84 96H180V192H84V96Z"/>
</mask>
<path d="M180 192V193H181V192H180ZM179 96V192H181V96H179ZM180 191H84V193H180V191Z" fill="#F4D0DC" mask="url(#path-37-inside-18_0_8150)"/>
<mask id="path-39-inside-19_0_8150" fill="white">
<path d="M180 96H276V192H180V96Z"/>
</mask>
<path d="M276 192V193H277V192H276ZM275 96V192H277V96H275ZM276 191H180V193H276V191Z" fill="#F4D0DC" mask="url(#path-39-inside-19_0_8150)"/>
<mask id="path-41-inside-20_0_8150" fill="white">
<path d="M276 96H372V192H276V96Z"/>
</mask>
<path d="M276 96H372V192H276V96Z" fill="#F4D0DC"/>
<path d="M372 192V193H373V192H372ZM371 96V192H373V96H371ZM372 191H276V193H372V191Z" fill="#F4D0DC" mask="url(#path-41-inside-20_0_8150)"/>
<mask id="path-43-inside-21_0_8150" fill="white">
<path d="M372 96H468V192H372V96Z"/>
</mask>
<path d="M468 192V193H469V192H468ZM467 96V192H469V96H467ZM468 191H372V193H468V191Z" fill="#F4D0DC" mask="url(#path-43-inside-21_0_8150)"/>
<mask id="path-45-inside-22_0_8150" fill="white">
<path d="M468 96H564V192H468V96Z"/>
</mask>
<path d="M564 192V193H565V192H564ZM563 96V192H565V96H563ZM564 191H468V193H564V191Z" fill="#F4D0DC" mask="url(#path-45-inside-22_0_8150)"/>
<mask id="path-47-inside-23_0_8150" fill="white">
<path d="M564 96H660V192H564V96Z"/>
</mask>
<path d="M660 192V193H661V192H660ZM659 96V192H661V96H659ZM660 191H564V193H660V191Z" fill="#F4D0DC" mask="url(#path-47-inside-23_0_8150)"/>
<mask id="path-49-inside-24_0_8150" fill="white">
<path d="M660 96H756V192H660V96Z"/>
</mask>
<path d="M756 192V193H757V192H756ZM755 96V192H757V96H755ZM756 191H660V193H756V191Z" fill="#F4D0DC" mask="url(#path-49-inside-24_0_8150)"/>
<mask id="path-51-inside-25_0_8150" fill="white">
<path d="M756 96H852V192H756V96Z"/>
</mask>
<path d="M852 192V193H853V192H852ZM851 96V192H853V96H851ZM852 191H756V193H852V191Z" fill="#F4D0DC" mask="url(#path-51-inside-25_0_8150)"/>
<mask id="path-53-inside-26_0_8150" fill="white">
<path d="M852 96H948V192H852V96Z"/>
</mask>
<path d="M948 192V193H949V192H948ZM947 96V192H949V96H947ZM948 191H852V193H948V191Z" fill="#F4D0DC" mask="url(#path-53-inside-26_0_8150)"/>
<mask id="path-55-inside-27_0_8150" fill="white">
<path d="M948 96H1044V192H948V96Z"/>
</mask>
<path d="M1044 192V193H1045V192H1044ZM1043 96V192H1045V96H1043ZM1044 191H948V193H1044V191Z" fill="#F4D0DC" mask="url(#path-55-inside-27_0_8150)"/>
<mask id="path-57-inside-28_0_8150" fill="white">
<path d="M1044 96H1140V192H1044V96Z"/>
</mask>
<path d="M1140 192V193H1141V192H1140ZM1139 96V192H1141V96H1139ZM1140 191H1044V193H1140V191Z" fill="#F4D0DC" mask="url(#path-57-inside-28_0_8150)"/>
<mask id="path-59-inside-29_0_8150" fill="white">
<path d="M1140 96H1236V192H1140V96Z"/>
</mask>
<path d="M1140 96H1236V192H1140V96Z" fill="#F4D0DC"/>
<path d="M1236 192V193H1237V192H1236ZM1235 96V192H1237V96H1235ZM1236 191H1140V193H1236V191Z" fill="#F4D0DC" mask="url(#path-59-inside-29_0_8150)"/>
<mask id="path-61-inside-30_0_8150" fill="white">
<path d="M1236 96H1332V192H1236V96Z"/>
</mask>
<path d="M1332 192V193H1333V192H1332ZM1331 96V192H1333V96H1331ZM1332 191H1236V193H1332V191Z" fill="#F4D0DC" mask="url(#path-61-inside-30_0_8150)"/>
<mask id="path-63-inside-31_0_8150" fill="white">
<path d="M1332 96H1428V192H1332V96Z"/>
</mask>
<path d="M1428 192V193H1429V192H1428ZM1427 96V192H1429V96H1427ZM1428 191H1332V193H1428V191Z" fill="#F4D0DC" mask="url(#path-63-inside-31_0_8150)"/>
<mask id="path-65-inside-32_0_8150" fill="white">
<path d="M1428 96H1524V192H1428V96Z"/>
</mask>
<path d="M1524 192V193H1525V192H1524ZM1523 96V192H1525V96H1523ZM1524 191H1428V193H1524V191Z" fill="#F4D0DC" mask="url(#path-65-inside-32_0_8150)"/>
<mask id="path-67-inside-33_0_8150" fill="white">
<path d="M-12 192H84V288H-12V192Z"/>
</mask>
<path d="M84 288V289H85V288H84ZM83 192V288H85V192H83ZM84 287H-12V289H84V287Z" fill="#F4D0DC" mask="url(#path-67-inside-33_0_8150)"/>
<mask id="path-69-inside-34_0_8150" fill="white">
<path d="M84 192H180V288H84V192Z"/>
</mask>
<path d="M180 288V289H181V288H180ZM179 192V288H181V192H179ZM180 287H84V289H180V287Z" fill="#F4D0DC" mask="url(#path-69-inside-34_0_8150)"/>
<mask id="path-71-inside-35_0_8150" fill="white">
<path d="M180 192H276V288H180V192Z"/>
</mask>
<path d="M276 288V289H277V288H276ZM275 192V288H277V192H275ZM276 287H180V289H276V287Z" fill="#F4D0DC" mask="url(#path-71-inside-35_0_8150)"/>
<mask id="path-73-inside-36_0_8150" fill="white">
<path d="M276 192H372V288H276V192Z"/>
</mask>
<path d="M372 288V289H373V288H372ZM371 192V288H373V192H371ZM372 287H276V289H372V287Z" fill="#F4D0DC" mask="url(#path-73-inside-36_0_8150)"/>
<mask id="path-75-inside-37_0_8150" fill="white">
<path d="M372 192H468V288H372V192Z"/>
</mask>
<path d="M468 288V289H469V288H468ZM467 192V288H469V192H467ZM468 287H372V289H468V287Z" fill="#F4D0DC" mask="url(#path-75-inside-37_0_8150)"/>
<mask id="path-77-inside-38_0_8150" fill="white">
<path d="M468 192H564V288H468V192Z"/>
</mask>
<path d="M468 192H564V288H468V192Z" fill="#F4D0DC"/>
<path d="M564 288V289H565V288H564ZM563 192V288H565V192H563ZM564 287H468V289H564V287Z" fill="#F4D0DC" mask="url(#path-77-inside-38_0_8150)"/>
<mask id="path-79-inside-39_0_8150" fill="white">
<path d="M564 192H660V288H564V192Z"/>
</mask>
<path d="M660 288V289H661V288H660ZM659 192V288H661V192H659ZM660 287H564V289H660V287Z" fill="#F4D0DC" mask="url(#path-79-inside-39_0_8150)"/>
<mask id="path-81-inside-40_0_8150" fill="white">
<path d="M660 192H756V288H660V192Z"/>
</mask>
<path d="M756 288V289H757V288H756ZM755 192V288H757V192H755ZM756 287H660V289H756V287Z" fill="#F4D0DC" mask="url(#path-81-inside-40_0_8150)"/>
<mask id="path-83-inside-41_0_8150" fill="white">
<path d="M756 192H852V288H756V192Z"/>
</mask>
<path d="M852 288V289H853V288H852ZM851 192V288H853V192H851ZM852 287H756V289H852V287Z" fill="#F4D0DC" mask="url(#path-83-inside-41_0_8150)"/>
<mask id="path-85-inside-42_0_8150" fill="white">
<path d="M852 192H948V288H852V192Z"/>
</mask>
<path d="M852 192H948V288H852V192Z" fill="#F4D0DC"/>
<path d="M948 288V289H949V288H948ZM947 192V288H949V192H947ZM948 287H852V289H948V287Z" fill="#F4D0DC" mask="url(#path-85-inside-42_0_8150)"/>
<mask id="path-87-inside-43_0_8150" fill="white">
<path d="M948 192H1044V288H948V192Z"/>
</mask>
<path d="M1044 288V289H1045V288H1044ZM1043 192V288H1045V192H1043ZM1044 287H948V289H1044V287Z" fill="#F4D0DC" mask="url(#path-87-inside-43_0_8150)"/>
<mask id="path-89-inside-44_0_8150" fill="white">
<path d="M1044 192H1140V288H1044V192Z"/>
</mask>
<path d="M1140 288V289H1141V288H1140ZM1139 192V288H1141V192H1139ZM1140 287H1044V289H1140V287Z" fill="#F4D0DC" mask="url(#path-89-inside-44_0_8150)"/>
<mask id="path-91-inside-45_0_8150" fill="white">
<path d="M1140 192H1236V288H1140V192Z"/>
</mask>
<path d="M1236 288V289H1237V288H1236ZM1235 192V288H1237V192H1235ZM1236 287H1140V289H1236V287Z" fill="#F4D0DC" mask="url(#path-91-inside-45_0_8150)"/>
<mask id="path-93-inside-46_0_8150" fill="white">
<path d="M1236 192H1332V288H1236V192Z"/>
</mask>
<path d="M1332 288V289H1333V288H1332ZM1331 192V288H1333V192H1331ZM1332 287H1236V289H1332V287Z" fill="#F4D0DC" mask="url(#path-93-inside-46_0_8150)"/>
<mask id="path-95-inside-47_0_8150" fill="white">
<path d="M1332 192H1428V288H1332V192Z"/>
</mask>
<path d="M1428 288V289H1429V288H1428ZM1427 192V288H1429V192H1427ZM1428 287H1332V289H1428V287Z" fill="#F4D0DC" mask="url(#path-95-inside-47_0_8150)"/>
<mask id="path-97-inside-48_0_8150" fill="white">
<path d="M1428 192H1524V288H1428V192Z"/>
</mask>
<path d="M1524 288V289H1525V288H1524ZM1523 192V288H1525V192H1523ZM1524 287H1428V289H1524V287Z" fill="#F4D0DC" mask="url(#path-97-inside-48_0_8150)"/>
<mask id="path-99-inside-49_0_8150" fill="white">
<path d="M-12 288H84V384H-12V288Z"/>
</mask>
<path d="M-12 288H84V384H-12V288Z" fill="#F4D0DC"/>
<path d="M84 384V385H85V384H84ZM83 288V384H85V288H83ZM84 383H-12V385H84V383Z" fill="#F4D0DC" mask="url(#path-99-inside-49_0_8150)"/>
<mask id="path-101-inside-50_0_8150" fill="white">
<path d="M84 288H180V384H84V288Z"/>
</mask>
<path d="M180 384V385H181V384H180ZM179 288V384H181V288H179ZM180 383H84V385H180V383Z" fill="#F4D0DC" mask="url(#path-101-inside-50_0_8150)"/>
<mask id="path-103-inside-51_0_8150" fill="white">
<path d="M180 288H276V384H180V288Z"/>
</mask>
<path d="M276 384V385H277V384H276ZM275 288V384H277V288H275ZM276 383H180V385H276V383Z" fill="#F4D0DC" mask="url(#path-103-inside-51_0_8150)"/>
<mask id="path-105-inside-52_0_8150" fill="white">
<path d="M276 288H372V384H276V288Z"/>
</mask>
<path d="M372 384V385H373V384H372ZM371 288V384H373V288H371ZM372 383H276V385H372V383Z" fill="#F4D0DC" mask="url(#path-105-inside-52_0_8150)"/>
<mask id="path-107-inside-53_0_8150" fill="white">
<path d="M372 288H468V384H372V288Z"/>
</mask>
<path d="M468 384V385H469V384H468ZM467 288V384H469V288H467ZM468 383H372V385H468V383Z" fill="#F4D0DC" mask="url(#path-107-inside-53_0_8150)"/>
<mask id="path-109-inside-54_0_8150" fill="white">
<path d="M468 288H564V384H468V288Z"/>
</mask>
<path d="M564 384V385H565V384H564ZM563 288V384H565V288H563ZM564 383H468V385H564V383Z" fill="#F4D0DC" mask="url(#path-109-inside-54_0_8150)"/>
<mask id="path-111-inside-55_0_8150" fill="white">
<path d="M564 288H660V384H564V288Z"/>
</mask>
<path d="M660 384V385H661V384H660ZM659 288V384H661V288H659ZM660 383H564V385H660V383Z" fill="#F4D0DC" mask="url(#path-111-inside-55_0_8150)"/>
<mask id="path-113-inside-56_0_8150" fill="white">
<path d="M660 288H756V384H660V288Z"/>
</mask>
<path d="M756 384V385H757V384H756ZM755 288V384H757V288H755ZM756 383H660V385H756V383Z" fill="#F4D0DC" mask="url(#path-113-inside-56_0_8150)"/>
<mask id="path-115-inside-57_0_8150" fill="white">
<path d="M756 288H852V384H756V288Z"/>
</mask>
<path d="M852 384V385H853V384H852ZM851 288V384H853V288H851ZM852 383H756V385H852V383Z" fill="#F4D0DC" mask="url(#path-115-inside-57_0_8150)"/>
<mask id="path-117-inside-58_0_8150" fill="white">
<path d="M852 288H948V384H852V288Z"/>
</mask>
<path d="M948 384V385H949V384H948ZM947 288V384H949V288H947ZM948 383H852V385H948V383Z" fill="#F4D0DC" mask="url(#path-117-inside-58_0_8150)"/>
<mask id="path-119-inside-59_0_8150" fill="white">
<path d="M948 288H1044V384H948V288Z"/>
</mask>
<path d="M1044 384V385H1045V384H1044ZM1043 288V384H1045V288H1043ZM1044 383H948V385H1044V383Z" fill="#F4D0DC" mask="url(#path-119-inside-59_0_8150)"/>
<mask id="path-121-inside-60_0_8150" fill="white">
<path d="M1044 288H1140V384H1044V288Z"/>
</mask>
<path d="M1140 384V385H1141V384H1140ZM1139 288V384H1141V288H1139ZM1140 383H1044V385H1140V383Z" fill="#F4D0DC" mask="url(#path-121-inside-60_0_8150)"/>
<mask id="path-123-inside-61_0_8150" fill="white">
<path d="M1140 288H1236V384H1140V288Z"/>
</mask>
<path d="M1140 288H1236V384H1140V288Z" fill="#F4D0DC"/>
<path d="M1236 384V385H1237V384H1236ZM1235 288V384H1237V288H1235ZM1236 383H1140V385H1236V383Z" fill="#F4D0DC" mask="url(#path-123-inside-61_0_8150)"/>
<mask id="path-125-inside-62_0_8150" fill="white">
<path d="M1236 288H1332V384H1236V288Z"/>
</mask>
<path d="M1332 384V385H1333V384H1332ZM1331 288V384H1333V288H1331ZM1332 383H1236V385H1332V383Z" fill="#F4D0DC" mask="url(#path-125-inside-62_0_8150)"/>
<mask id="path-127-inside-63_0_8150" fill="white">
<path d="M1332 288H1428V384H1332V288Z"/>
</mask>
<path d="M1428 384V385H1429V384H1428ZM1427 288V384H1429V288H1427ZM1428 383H1332V385H1428V383Z" fill="#F4D0DC" mask="url(#path-127-inside-63_0_8150)"/>
<mask id="path-129-inside-64_0_8150" fill="white">
<path d="M1428 288H1524V384H1428V288Z"/>
</mask>
<path d="M1524 384V385H1525V384H1524ZM1523 288V384H1525V288H1523ZM1524 383H1428V385H1524V383Z" fill="#F4D0DC" mask="url(#path-129-inside-64_0_8150)"/>
<mask id="path-131-inside-65_0_8150" fill="white">
<path d="M-12 384H84V480H-12V384Z"/>
</mask>
<path d="M84 480V481H85V480H84ZM83 384V480H85V384H83ZM84 479H-12V481H84V479Z" fill="#F4D0DC" mask="url(#path-131-inside-65_0_8150)"/>
<mask id="path-133-inside-66_0_8150" fill="white">
<path d="M84 384H180V480H84V384Z"/>
</mask>
<path d="M180 480V481H181V480H180ZM179 384V480H181V384H179ZM180 479H84V481H180V479Z" fill="#F4D0DC" mask="url(#path-133-inside-66_0_8150)"/>
<mask id="path-135-inside-67_0_8150" fill="white">
<path d="M180 384H276V480H180V384Z"/>
</mask>
<path d="M276 480V481H277V480H276ZM275 384V480H277V384H275ZM276 479H180V481H276V479Z" fill="#F4D0DC" mask="url(#path-135-inside-67_0_8150)"/>
<mask id="path-137-inside-68_0_8150" fill="white">
<path d="M276 384H372V480H276V384Z"/>
</mask>
<path d="M372 480V481H373V480H372ZM371 384V480H373V384H371ZM372 479H276V481H372V479Z" fill="#F4D0DC" mask="url(#path-137-inside-68_0_8150)"/>
<mask id="path-139-inside-69_0_8150" fill="white">
<path d="M372 384H468V480H372V384Z"/>
</mask>
<path d="M468 480V481H469V480H468ZM467 384V480H469V384H467ZM468 479H372V481H468V479Z" fill="#F4D0DC" mask="url(#path-139-inside-69_0_8150)"/>
<mask id="path-141-inside-70_0_8150" fill="white">
<path d="M468 384H564V480H468V384Z"/>
</mask>
<path d="M564 480V481H565V480H564ZM563 384V480H565V384H563ZM564 479H468V481H564V479Z" fill="#F4D0DC" mask="url(#path-141-inside-70_0_8150)"/>
<mask id="path-143-inside-71_0_8150" fill="white">
<path d="M564 384H660V480H564V384Z"/>
</mask>
<path d="M564 384H660V480H564V384Z" fill="#F4D0DC"/>
<path d="M660 480V481H661V480H660ZM659 384V480H661V384H659ZM660 479H564V481H660V479Z" fill="#F4D0DC" mask="url(#path-143-inside-71_0_8150)"/>
<mask id="path-145-inside-72_0_8150" fill="white">
<path d="M660 384H756V480H660V384Z"/>
</mask>
<path d="M756 480V481H757V480H756ZM755 384V480H757V384H755ZM756 479H660V481H756V479Z" fill="#F4D0DC" mask="url(#path-145-inside-72_0_8150)"/>
<mask id="path-147-inside-73_0_8150" fill="white">
<path d="M756 384H852V480H756V384Z"/>
</mask>
<path d="M852 480V481H853V480H852ZM851 384V480H853V384H851ZM852 479H756V481H852V479Z" fill="#F4D0DC" mask="url(#path-147-inside-73_0_8150)"/>
<mask id="path-149-inside-74_0_8150" fill="white">
<path d="M852 384H948V480H852V384Z"/>
</mask>
<path d="M948 480V481H949V480H948ZM947 384V480H949V384H947ZM948 479H852V481H948V479Z" fill="#F4D0DC" mask="url(#path-149-inside-74_0_8150)"/>
<mask id="path-151-inside-75_0_8150" fill="white">
<path d="M948 384H1044V480H948V384Z"/>
</mask>
<path d="M1044 480V481H1045V480H1044ZM1043 384V480H1045V384H1043ZM1044 479H948V481H1044V479Z" fill="#F4D0DC" mask="url(#path-151-inside-75_0_8150)"/>
<mask id="path-153-inside-76_0_8150" fill="white">
<path d="M1044 384H1140V480H1044V384Z"/>
</mask>
<path d="M1140 480V481H1141V480H1140ZM1139 384V480H1141V384H1139ZM1140 479H1044V481H1140V479Z" fill="#F4D0DC" mask="url(#path-153-inside-76_0_8150)"/>
<mask id="path-155-inside-77_0_8150" fill="white">
<path d="M1140 384H1236V480H1140V384Z"/>
</mask>
<path d="M1236 480V481H1237V480H1236ZM1235 384V480H1237V384H1235ZM1236 479H1140V481H1236V479Z" fill="#F4D0DC" mask="url(#path-155-inside-77_0_8150)"/>
<mask id="path-157-inside-78_0_8150" fill="white">
<path d="M1236 384H1332V480H1236V384Z"/>
</mask>
<path d="M1332 480V481H1333V480H1332ZM1331 384V480H1333V384H1331ZM1332 479H1236V481H1332V479Z" fill="#F4D0DC" mask="url(#path-157-inside-78_0_8150)"/>
<mask id="path-159-inside-79_0_8150" fill="white">
<path d="M1332 384H1428V480H1332V384Z"/>
</mask>
<path d="M1428 480V481H1429V480H1428ZM1427 384V480H1429V384H1427ZM1428 479H1332V481H1428V479Z" fill="#F4D0DC" mask="url(#path-159-inside-79_0_8150)"/>
<mask id="path-161-inside-80_0_8150" fill="white">
<path d="M1428 384H1524V480H1428V384Z"/>
</mask>
<path d="M1524 480V481H1525V480H1524ZM1523 384V480H1525V384H1523ZM1524 479H1428V481H1524V479Z" fill="#F4D0DC" mask="url(#path-161-inside-80_0_8150)"/>
<mask id="path-163-inside-81_0_8150" fill="white">
<path d="M-12 480H84V576H-12V480Z"/>
</mask>
<path d="M84 576V577H85V576H84ZM83 480V576H85V480H83ZM84 575H-12V577H84V575Z" fill="#F4D0DC" mask="url(#path-163-inside-81_0_8150)"/>
<mask id="path-165-inside-82_0_8150" fill="white">
<path d="M84 480H180V576H84V480Z"/>
</mask>
<path d="M180 576V577H181V576H180ZM179 480V576H181V480H179ZM180 575H84V577H180V575Z" fill="#F4D0DC" mask="url(#path-165-inside-82_0_8150)"/>
<mask id="path-167-inside-83_0_8150" fill="white">
<path d="M180 480H276V576H180V480Z"/>
</mask>
<path d="M276 576V577H277V576H276ZM275 480V576H277V480H275ZM276 575H180V577H276V575Z" fill="#F4D0DC" mask="url(#path-167-inside-83_0_8150)"/>
<mask id="path-169-inside-84_0_8150" fill="white">
<path d="M276 480H372V576H276V480Z"/>
</mask>
<path d="M276 480H372V576H276V480Z" fill="#F4D0DC"/>
<path d="M372 576V577H373V576H372ZM371 480V576H373V480H371ZM372 575H276V577H372V575Z" fill="#F4D0DC" mask="url(#path-169-inside-84_0_8150)"/>
<mask id="path-171-inside-85_0_8150" fill="white">
<path d="M372 480H468V576H372V480Z"/>
</mask>
<path d="M468 576V577H469V576H468ZM467 480V576H469V480H467ZM468 575H372V577H468V575Z" fill="#F4D0DC" mask="url(#path-171-inside-85_0_8150)"/>
<mask id="path-173-inside-86_0_8150" fill="white">
<path d="M468 480H564V576H468V480Z"/>
</mask>
<path d="M564 576V577H565V576H564ZM563 480V576H565V480H563ZM564 575H468V577H564V575Z" fill="#F4D0DC" mask="url(#path-173-inside-86_0_8150)"/>
<mask id="path-175-inside-87_0_8150" fill="white">
<path d="M564 480H660V576H564V480Z"/>
</mask>
<path d="M660 576V577H661V576H660ZM659 480V576H661V480H659ZM660 575H564V577H660V575Z" fill="#F4D0DC" mask="url(#path-175-inside-87_0_8150)"/>
<mask id="path-177-inside-88_0_8150" fill="white">
<path d="M660 480H756V576H660V480Z"/>
</mask>
<path d="M756 576V577H757V576H756ZM755 480V576H757V480H755ZM756 575H660V577H756V575Z" fill="#F4D0DC" mask="url(#path-177-inside-88_0_8150)"/>
<mask id="path-179-inside-89_0_8150" fill="white">
<path d="M756 480H852V576H756V480Z"/>
</mask>
<path d="M852 576V577H853V576H852ZM851 480V576H853V480H851ZM852 575H756V577H852V575Z" fill="#F4D0DC" mask="url(#path-179-inside-89_0_8150)"/>
<mask id="path-181-inside-90_0_8150" fill="white">
<path d="M852 480H948V576H852V480Z"/>
</mask>
<path d="M852 480H948V576H852V480Z" fill="#F4D0DC"/>
<path d="M948 576V577H949V576H948ZM947 480V576H949V480H947ZM948 575H852V577H948V575Z" fill="#F4D0DC" mask="url(#path-181-inside-90_0_8150)"/>
<mask id="path-183-inside-91_0_8150" fill="white">
<path d="M948 480H1044V576H948V480Z"/>
</mask>
<path d="M1044 576V577H1045V576H1044ZM1043 480V576H1045V480H1043ZM1044 575H948V577H1044V575Z" fill="#F4D0DC" mask="url(#path-183-inside-91_0_8150)"/>
<mask id="path-185-inside-92_0_8150" fill="white">
<path d="M1044 480H1140V576H1044V480Z"/>
</mask>
<path d="M1140 576V577H1141V576H1140ZM1139 480V576H1141V480H1139ZM1140 575H1044V577H1140V575Z" fill="#F4D0DC" mask="url(#path-185-inside-92_0_8150)"/>
<mask id="path-187-inside-93_0_8150" fill="white">
<path d="M1140 480H1236V576H1140V480Z"/>
</mask>
<path d="M1236 576V577H1237V576H1236ZM1235 480V576H1237V480H1235ZM1236 575H1140V577H1236V575Z" fill="#F4D0DC" mask="url(#path-187-inside-93_0_8150)"/>
<mask id="path-189-inside-94_0_8150" fill="white">
<path d="M1236 480H1332V576H1236V480Z"/>
</mask>
<path d="M1332 576V577H1333V576H1332ZM1331 480V576H1333V480H1331ZM1332 575H1236V577H1332V575Z" fill="#F4D0DC" mask="url(#path-189-inside-94_0_8150)"/>
<mask id="path-191-inside-95_0_8150" fill="white">
<path d="M1332 480H1428V576H1332V480Z"/>
</mask>
<path d="M1428 576V577H1429V576H1428ZM1427 480V576H1429V480H1427ZM1428 575H1332V577H1428V575Z" fill="#F4D0DC" mask="url(#path-191-inside-95_0_8150)"/>
<mask id="path-193-inside-96_0_8150" fill="white">
<path d="M1428 480H1524V576H1428V480Z"/>
</mask>
<path d="M1524 576V577H1525V576H1524ZM1523 480V576H1525V480H1523ZM1524 575H1428V577H1524V575Z" fill="#F4D0DC" mask="url(#path-193-inside-96_0_8150)"/>
<mask id="path-195-inside-97_0_8150" fill="white">
<path d="M-12 576H84V672H-12V576Z"/>
</mask>
<path d="M84 672V673H85V672H84ZM83 576V672H85V576H83ZM84 671H-12V673H84V671Z" fill="#F4D0DC" mask="url(#path-195-inside-97_0_8150)"/>
<mask id="path-197-inside-98_0_8150" fill="white">
<path d="M84 576H180V672H84V576Z"/>
</mask>
<path d="M84 576H180V672H84V576Z" fill="#F4D0DC"/>
<path d="M180 672V673H181V672H180ZM179 576V672H181V576H179ZM180 671H84V673H180V671Z" fill="#F4D0DC" mask="url(#path-197-inside-98_0_8150)"/>
<mask id="path-199-inside-99_0_8150" fill="white">
<path d="M180 576H276V672H180V576Z"/>
</mask>
<path d="M276 672V673H277V672H276ZM275 576V672H277V576H275ZM276 671H180V673H276V671Z" fill="#F4D0DC" mask="url(#path-199-inside-99_0_8150)"/>
<mask id="path-201-inside-100_0_8150" fill="white">
<path d="M276 576H372V672H276V576Z"/>
</mask>
<path d="M372 672V673H373V672H372ZM371 576V672H373V576H371ZM372 671H276V673H372V671Z" fill="#F4D0DC" mask="url(#path-201-inside-100_0_8150)"/>
<mask id="path-203-inside-101_0_8150" fill="white">
<path d="M372 576H468V672H372V576Z"/>
</mask>
<path d="M468 672V673H469V672H468ZM467 576V672H469V576H467ZM468 671H372V673H468V671Z" fill="#F4D0DC" mask="url(#path-203-inside-101_0_8150)"/>
<mask id="path-205-inside-102_0_8150" fill="white">
<path d="M468 576H564V672H468V576Z"/>
</mask>
<path d="M564 672V673H565V672H564ZM563 576V672H565V576H563ZM564 671H468V673H564V671Z" fill="#F4D0DC" mask="url(#path-205-inside-102_0_8150)"/>
<mask id="path-207-inside-103_0_8150" fill="white">
<path d="M564 576H660V672H564V576Z"/>
</mask>
<path d="M660 672V673H661V672H660ZM659 576V672H661V576H659ZM660 671H564V673H660V671Z" fill="#F4D0DC" mask="url(#path-207-inside-103_0_8150)"/>
<mask id="path-209-inside-104_0_8150" fill="white">
<path d="M660 576H756V672H660V576Z"/>
</mask>
<path d="M756 672V673H757V672H756ZM755 576V672H757V576H755ZM756 671H660V673H756V671Z" fill="#F4D0DC" mask="url(#path-209-inside-104_0_8150)"/>
<mask id="path-211-inside-105_0_8150" fill="white">
<path d="M756 576H852V672H756V576Z"/>
</mask>
<path d="M852 672V673H853V672H852ZM851 576V672H853V576H851ZM852 671H756V673H852V671Z" fill="#F4D0DC" mask="url(#path-211-inside-105_0_8150)"/>
<mask id="path-213-inside-106_0_8150" fill="white">
<path d="M852 576H948V672H852V576Z"/>
</mask>
<path d="M948 672V673H949V672H948ZM947 576V672H949V576H947ZM948 671H852V673H948V671Z" fill="#F4D0DC" mask="url(#path-213-inside-106_0_8150)"/>
<mask id="path-215-inside-107_0_8150" fill="white">
<path d="M948 576H1044V672H948V576Z"/>
</mask>
<path d="M1044 672V673H1045V672H1044ZM1043 576V672H1045V576H1043ZM1044 671H948V673H1044V671Z" fill="#F4D0DC" mask="url(#path-215-inside-107_0_8150)"/>
<mask id="path-217-inside-108_0_8150" fill="white">
<path d="M1044 576H1140V672H1044V576Z"/>
</mask>
<path d="M1140 672V673H1141V672H1140ZM1139 576V672H1141V576H1139ZM1140 671H1044V673H1140V671Z" fill="#F4D0DC" mask="url(#path-217-inside-108_0_8150)"/>
<mask id="path-219-inside-109_0_8150" fill="white">
<path d="M1140 576H1236V672H1140V576Z"/>
</mask>
<path d="M1236 672V673H1237V672H1236ZM1235 576V672H1237V576H1235ZM1236 671H1140V673H1236V671Z" fill="#F4D0DC" mask="url(#path-219-inside-109_0_8150)"/>
<mask id="path-221-inside-110_0_8150" fill="white">
<path d="M1236 576H1332V672H1236V576Z"/>
</mask>
<path d="M1332 672V673H1333V672H1332ZM1331 576V672H1333V576H1331ZM1332 671H1236V673H1332V671Z" fill="#F4D0DC" mask="url(#path-221-inside-110_0_8150)"/>
<mask id="path-223-inside-111_0_8150" fill="white">
<path d="M1332 576H1428V672H1332V576Z"/>
</mask>
<path d="M1332 576H1428V672H1332V576Z" fill="#F4D0DC"/>
<path d="M1428 672V673H1429V672H1428ZM1427 576V672H1429V576H1427ZM1428 671H1332V673H1428V671Z" fill="#F4D0DC" mask="url(#path-223-inside-111_0_8150)"/>
<mask id="path-225-inside-112_0_8150" fill="white">
<path d="M1428 576H1524V672H1428V576Z"/>
</mask>
<path d="M1524 672V673H1525V672H1524ZM1523 576V672H1525V576H1523ZM1524 671H1428V673H1524V671Z" fill="#F4D0DC" mask="url(#path-225-inside-112_0_8150)"/>
<mask id="path-227-inside-113_0_8150" fill="white">
<path d="M-12 672H84V768H-12V672Z"/>
</mask>
<path d="M84 768V769H85V768H84ZM83 672V768H85V672H83ZM84 767H-12V769H84V767Z" fill="#F4D0DC" mask="url(#path-227-inside-113_0_8150)"/>
<mask id="path-229-inside-114_0_8150" fill="white">
<path d="M84 672H180V768H84V672Z"/>
</mask>
<path d="M180 768V769H181V768H180ZM179 672V768H181V672H179ZM180 767H84V769H180V767Z" fill="#F4D0DC" mask="url(#path-229-inside-114_0_8150)"/>
<mask id="path-231-inside-115_0_8150" fill="white">
<path d="M180 672H276V768H180V672Z"/>
</mask>
<path d="M276 768V769H277V768H276ZM275 672V768H277V672H275ZM276 767H180V769H276V767Z" fill="#F4D0DC" mask="url(#path-231-inside-115_0_8150)"/>
<mask id="path-233-inside-116_0_8150" fill="white">
<path d="M276 672H372V768H276V672Z"/>
</mask>
<path d="M372 768V769H373V768H372ZM371 672V768H373V672H371ZM372 767H276V769H372V767Z" fill="#F4D0DC" mask="url(#path-233-inside-116_0_8150)"/>
<mask id="path-235-inside-117_0_8150" fill="white">
<path d="M372 672H468V768H372V672Z"/>
</mask>
<path d="M468 768V769H469V768H468ZM467 672V768H469V672H467ZM468 767H372V769H468V767Z" fill="#F4D0DC" mask="url(#path-235-inside-117_0_8150)"/>
<mask id="path-237-inside-118_0_8150" fill="white">
<path d="M468 672H564V768H468V672Z"/>
</mask>
<path d="M564 768V769H565V768H564ZM563 672V768H565V672H563ZM564 767H468V769H564V767Z" fill="#F4D0DC" mask="url(#path-237-inside-118_0_8150)"/>
<mask id="path-239-inside-119_0_8150" fill="white">
<path d="M564 672H660V768H564V672Z"/>
</mask>
<path d="M564 672H660V768H564V672Z" fill="#F4D0DC"/>
<path d="M660 768V769H661V768H660ZM659 672V768H661V672H659ZM660 767H564V769H660V767Z" fill="#F4D0DC" mask="url(#path-239-inside-119_0_8150)"/>
<mask id="path-241-inside-120_0_8150" fill="white">
<path d="M660 672H756V768H660V672Z"/>
</mask>
<path d="M756 768V769H757V768H756ZM755 672V768H757V672H755ZM756 767H660V769H756V767Z" fill="#F4D0DC" mask="url(#path-241-inside-120_0_8150)"/>
<mask id="path-243-inside-121_0_8150" fill="white">
<path d="M756 672H852V768H756V672Z"/>
</mask>
<path d="M852 768V769H853V768H852ZM851 672V768H853V672H851ZM852 767H756V769H852V767Z" fill="#F4D0DC" mask="url(#path-243-inside-121_0_8150)"/>
<mask id="path-245-inside-122_0_8150" fill="white">
<path d="M852 672H948V768H852V672Z"/>
</mask>
<path d="M948 768V769H949V768H948ZM947 672V768H949V672H947ZM948 767H852V769H948V767Z" fill="#F4D0DC" mask="url(#path-245-inside-122_0_8150)"/>
<mask id="path-247-inside-123_0_8150" fill="white">
<path d="M948 672H1044V768H948V672Z"/>
</mask>
<path d="M1044 768V769H1045V768H1044ZM1043 672V768H1045V672H1043ZM1044 767H948V769H1044V767Z" fill="#F4D0DC" mask="url(#path-247-inside-123_0_8150)"/>
<mask id="path-249-inside-124_0_8150" fill="white">
<path d="M1044 672H1140V768H1044V672Z"/>
</mask>
<path d="M1140 768V769H1141V768H1140ZM1139 672V768H1141V672H1139ZM1140 767H1044V769H1140V767Z" fill="#F4D0DC" mask="url(#path-249-inside-124_0_8150)"/>
<mask id="path-251-inside-125_0_8150" fill="white">
<path d="M1140 672H1236V768H1140V672Z"/>
</mask>
<path d="M1140 672H1236V768H1140V672Z" fill="#F4D0DC"/>
<path d="M1236 768V769H1237V768H1236ZM1235 672V768H1237V672H1235ZM1236 767H1140V769H1236V767Z" fill="#F4D0DC" mask="url(#path-251-inside-125_0_8150)"/>
<mask id="path-253-inside-126_0_8150" fill="white">
<path d="M1236 672H1332V768H1236V672Z"/>
</mask>
<path d="M1332 768V769H1333V768H1332ZM1331 672V768H1333V672H1331ZM1332 767H1236V769H1332V767Z" fill="#F4D0DC" mask="url(#path-253-inside-126_0_8150)"/>
<mask id="path-255-inside-127_0_8150" fill="white">
<path d="M1332 672H1428V768H1332V672Z"/>
</mask>
<path d="M1428 768V769H1429V768H1428ZM1427 672V768H1429V672H1427ZM1428 767H1332V769H1428V767Z" fill="#F4D0DC" mask="url(#path-255-inside-127_0_8150)"/>
<mask id="path-257-inside-128_0_8150" fill="white">
<path d="M1428 672H1524V768H1428V672Z"/>
</mask>
<path d="M1524 768V769H1525V768H1524ZM1523 672V768H1525V672H1523ZM1524 767H1428V769H1524V767Z" fill="#F4D0DC" mask="url(#path-257-inside-128_0_8150)"/>
<mask id="path-259-inside-129_0_8150" fill="white">
<path d="M-12 768H84V864H-12V768Z"/>
</mask>
<path d="M84 864V865H85V864H84ZM83 768V864H85V768H83ZM84 863H-12V865H84V863Z" fill="#F4D0DC" mask="url(#path-259-inside-129_0_8150)"/>
<mask id="path-261-inside-130_0_8150" fill="white">
<path d="M84 768H180V864H84V768Z"/>
</mask>
<path d="M180 864V865H181V864H180ZM179 768V864H181V768H179ZM180 863H84V865H180V863Z" fill="#F4D0DC" mask="url(#path-261-inside-130_0_8150)"/>
<mask id="path-263-inside-131_0_8150" fill="white">
<path d="M180 768H276V864H180V768Z"/>
</mask>
<path d="M276 864V865H277V864H276ZM275 768V864H277V768H275ZM276 863H180V865H276V863Z" fill="#F4D0DC" mask="url(#path-263-inside-131_0_8150)"/>
<mask id="path-265-inside-132_0_8150" fill="white">
<path d="M276 768H372V864H276V768Z"/>
</mask>
<path d="M276 768H372V864H276V768Z" fill="#F4D0DC"/>
<path d="M372 864V865H373V864H372ZM371 768V864H373V768H371ZM372 863H276V865H372V863Z" fill="#F4D0DC" mask="url(#path-265-inside-132_0_8150)"/>
<mask id="path-267-inside-133_0_8150" fill="white">
<path d="M372 768H468V864H372V768Z"/>
</mask>
<path d="M468 864V865H469V864H468ZM467 768V864H469V768H467ZM468 863H372V865H468V863Z" fill="#F4D0DC" mask="url(#path-267-inside-133_0_8150)"/>
<mask id="path-269-inside-134_0_8150" fill="white">
<path d="M468 768H564V864H468V768Z"/>
</mask>
<path d="M564 864V865H565V864H564ZM563 768V864H565V768H563ZM564 863H468V865H564V863Z" fill="#F4D0DC" mask="url(#path-269-inside-134_0_8150)"/>
<mask id="path-271-inside-135_0_8150" fill="white">
<path d="M564 768H660V864H564V768Z"/>
</mask>
<path d="M660 864V865H661V864H660ZM659 768V864H661V768H659ZM660 863H564V865H660V863Z" fill="#F4D0DC" mask="url(#path-271-inside-135_0_8150)"/>
<mask id="path-273-inside-136_0_8150" fill="white">
<path d="M660 768H756V864H660V768Z"/>
</mask>
<path d="M756 864V865H757V864H756ZM755 768V864H757V768H755ZM756 863H660V865H756V863Z" fill="#F4D0DC" mask="url(#path-273-inside-136_0_8150)"/>
<mask id="path-275-inside-137_0_8150" fill="white">
<path d="M756 768H852V864H756V768Z"/>
</mask>
<path d="M852 864V865H853V864H852ZM851 768V864H853V768H851ZM852 863H756V865H852V863Z" fill="#F4D0DC" mask="url(#path-275-inside-137_0_8150)"/>
<mask id="path-277-inside-138_0_8150" fill="white">
<path d="M852 768H948V864H852V768Z"/>
</mask>
<path d="M852 768H948V864H852V768Z" fill="#F4D0DC"/>
<path d="M948 864V865H949V864H948ZM947 768V864H949V768H947ZM948 863H852V865H948V863Z" fill="#F4D0DC" mask="url(#path-277-inside-138_0_8150)"/>
<mask id="path-279-inside-139_0_8150" fill="white">
<path d="M948 768H1044V864H948V768Z"/>
</mask>
<path d="M1044 864V865H1045V864H1044ZM1043 768V864H1045V768H1043ZM1044 863H948V865H1044V863Z" fill="#F4D0DC" mask="url(#path-279-inside-139_0_8150)"/>
<mask id="path-281-inside-140_0_8150" fill="white">
<path d="M1044 768H1140V864H1044V768Z"/>
</mask>
<path d="M1140 864V865H1141V864H1140ZM1139 768V864H1141V768H1139ZM1140 863H1044V865H1140V863Z" fill="#F4D0DC" mask="url(#path-281-inside-140_0_8150)"/>
<mask id="path-283-inside-141_0_8150" fill="white">
<path d="M1140 768H1236V864H1140V768Z"/>
</mask>
<path d="M1236 864V865H1237V864H1236ZM1235 768V864H1237V768H1235ZM1236 863H1140V865H1236V863Z" fill="#F4D0DC" mask="url(#path-283-inside-141_0_8150)"/>
<mask id="path-285-inside-142_0_8150" fill="white">
<path d="M1236 768H1332V864H1236V768Z"/>
</mask>
<path d="M1332 864V865H1333V864H1332ZM1331 768V864H1333V768H1331ZM1332 863H1236V865H1332V863Z" fill="#F4D0DC" mask="url(#path-285-inside-142_0_8150)"/>
<mask id="path-287-inside-143_0_8150" fill="white">
<path d="M1332 768H1428V864H1332V768Z"/>
</mask>
<path d="M1428 864V865H1429V864H1428ZM1427 768V864H1429V768H1427ZM1428 863H1332V865H1428V863Z" fill="#F4D0DC" mask="url(#path-287-inside-143_0_8150)"/>
<mask id="path-289-inside-144_0_8150" fill="white">
<path d="M1428 768H1524V864H1428V768Z"/>
</mask>
<path d="M1524 864V865H1525V864H1524ZM1523 768V864H1525V768H1523ZM1524 863H1428V865H1524V863Z" fill="#F4D0DC" mask="url(#path-289-inside-144_0_8150)"/>
<mask id="path-291-inside-145_0_8150" fill="white">
<path d="M-12 864H84V960H-12V864Z"/>
</mask>
<path d="M84 960V961H85V960H84ZM83 864V960H85V864H83ZM84 959H-12V961H84V959Z" fill="#F4D0DC" mask="url(#path-291-inside-145_0_8150)"/>
<mask id="path-293-inside-146_0_8150" fill="white">
<path d="M84 864H180V960H84V864Z"/>
</mask>
<path d="M180 960V961H181V960H180ZM179 864V960H181V864H179ZM180 959H84V961H180V959Z" fill="#F4D0DC" mask="url(#path-293-inside-146_0_8150)"/>
<mask id="path-295-inside-147_0_8150" fill="white">
<path d="M180 864H276V960H180V864Z"/>
</mask>
<path d="M276 960V961H277V960H276ZM275 864V960H277V864H275ZM276 959H180V961H276V959Z" fill="#F4D0DC" mask="url(#path-295-inside-147_0_8150)"/>
<mask id="path-297-inside-148_0_8150" fill="white">
<path d="M276 864H372V960H276V864Z"/>
</mask>
<path d="M372 960V961H373V960H372ZM371 864V960H373V864H371ZM372 959H276V961H372V959Z" fill="#F4D0DC" mask="url(#path-297-inside-148_0_8150)"/>
<mask id="path-299-inside-149_0_8150" fill="white">
<path d="M372 864H468V960H372V864Z"/>
</mask>
<path d="M468 960V961H469V960H468ZM467 864V960H469V864H467ZM468 959H372V961H468V959Z" fill="#F4D0DC" mask="url(#path-299-inside-149_0_8150)"/>
<mask id="path-301-inside-150_0_8150" fill="white">
<path d="M468 864H564V960H468V864Z"/>
</mask>
<path d="M564 960V961H565V960H564ZM563 864V960H565V864H563ZM564 959H468V961H564V959Z" fill="#F4D0DC" mask="url(#path-301-inside-150_0_8150)"/>
<mask id="path-303-inside-151_0_8150" fill="white">
<path d="M564 864H660V960H564V864Z"/>
</mask>
<path d="M660 960V961H661V960H660ZM659 864V960H661V864H659ZM660 959H564V961H660V959Z" fill="#F4D0DC" mask="url(#path-303-inside-151_0_8150)"/>
<mask id="path-305-inside-152_0_8150" fill="white">
<path d="M660 864H756V960H660V864Z"/>
</mask>
<path d="M756 960V961H757V960H756ZM755 864V960H757V864H755ZM756 959H660V961H756V959Z" fill="#F4D0DC" mask="url(#path-305-inside-152_0_8150)"/>
<mask id="path-307-inside-153_0_8150" fill="white">
<path d="M756 864H852V960H756V864Z"/>
</mask>
<path d="M852 960V961H853V960H852ZM851 864V960H853V864H851ZM852 959H756V961H852V959Z" fill="#F4D0DC" mask="url(#path-307-inside-153_0_8150)"/>
<mask id="path-309-inside-154_0_8150" fill="white">
<path d="M852 864H948V960H852V864Z"/>
</mask>
<path d="M948 960V961H949V960H948ZM947 864V960H949V864H947ZM948 959H852V961H948V959Z" fill="#F4D0DC" mask="url(#path-309-inside-154_0_8150)"/>
<mask id="path-311-inside-155_0_8150" fill="white">
<path d="M948 864H1044V960H948V864Z"/>
</mask>
<path d="M1044 960V961H1045V960H1044ZM1043 864V960H1045V864H1043ZM1044 959H948V961H1044V959Z" fill="#F4D0DC" mask="url(#path-311-inside-155_0_8150)"/>
<mask id="path-313-inside-156_0_8150" fill="white">
<path d="M1044 864H1140V960H1044V864Z"/>
</mask>
<path d="M1140 960V961H1141V960H1140ZM1139 864V960H1141V864H1139ZM1140 959H1044V961H1140V959Z" fill="#F4D0DC" mask="url(#path-313-inside-156_0_8150)"/>
<mask id="path-315-inside-157_0_8150" fill="white">
<path d="M1140 864H1236V960H1140V864Z"/>
</mask>
<path d="M1236 960V961H1237V960H1236ZM1235 864V960H1237V864H1235ZM1236 959H1140V961H1236V959Z" fill="#F4D0DC" mask="url(#path-315-inside-157_0_8150)"/>
<mask id="path-317-inside-158_0_8150" fill="white">
<path d="M1236 864H1332V960H1236V864Z"/>
</mask>
<path d="M1332 960V961H1333V960H1332ZM1331 864V960H1333V864H1331ZM1332 959H1236V961H1332V959Z" fill="#F4D0DC" mask="url(#path-317-inside-158_0_8150)"/>
<mask id="path-319-inside-159_0_8150" fill="white">
<path d="M1332 864H1428V960H1332V864Z"/>
</mask>
<path d="M1428 960V961H1429V960H1428ZM1427 864V960H1429V864H1427ZM1428 959H1332V961H1428V959Z" fill="#F4D0DC" mask="url(#path-319-inside-159_0_8150)"/>
<mask id="path-321-inside-160_0_8150" fill="white">
<path d="M1428 864H1524V960H1428V864Z"/>
</mask>
<path d="M1428 864H1524V960H1428V864Z" fill="#F4D0DC"/>
<path d="M1524 960V961H1525V960H1524ZM1523 864V960H1525V864H1523ZM1524 959H1428V961H1524V959Z" fill="#F4D0DC" mask="url(#path-321-inside-160_0_8150)"/>
<mask id="path-323-inside-161_0_8150" fill="white">
<path d="M-12 960H84V1056H-12V960Z"/>
</mask>
<path d="M84 1056V1057H85V1056H84ZM83 960V1056H85V960H83ZM84 1055H-12V1057H84V1055Z" fill="#F4D0DC" mask="url(#path-323-inside-161_0_8150)"/>
<mask id="path-325-inside-162_0_8150" fill="white">
<path d="M84 960H180V1056H84V960Z"/>
</mask>
<path d="M180 1056V1057H181V1056H180ZM179 960V1056H181V960H179ZM180 1055H84V1057H180V1055Z" fill="#F4D0DC" mask="url(#path-325-inside-162_0_8150)"/>
<mask id="path-327-inside-163_0_8150" fill="white">
<path d="M180 960H276V1056H180V960Z"/>
</mask>
<path d="M276 1056V1057H277V1056H276ZM275 960V1056H277V960H275ZM276 1055H180V1057H276V1055Z" fill="#F4D0DC" mask="url(#path-327-inside-163_0_8150)"/>
<mask id="path-329-inside-164_0_8150" fill="white">
<path d="M276 960H372V1056H276V960Z"/>
</mask>
<path d="M372 1056V1057H373V1056H372ZM371 960V1056H373V960H371ZM372 1055H276V1057H372V1055Z" fill="#F4D0DC" mask="url(#path-329-inside-164_0_8150)"/>
<mask id="path-331-inside-165_0_8150" fill="white">
<path d="M372 960H468V1056H372V960Z"/>
</mask>
<path d="M372 960H468V1056H372V960Z" fill="#F4D0DC"/>
<path d="M468 1056V1057H469V1056H468ZM467 960V1056H469V960H467ZM468 1055H372V1057H468V1055Z" fill="#F4D0DC" mask="url(#path-331-inside-165_0_8150)"/>
<mask id="path-333-inside-166_0_8150" fill="white">
<path d="M468 960H564V1056H468V960Z"/>
</mask>
<path d="M564 1056V1057H565V1056H564ZM563 960V1056H565V960H563ZM564 1055H468V1057H564V1055Z" fill="#F4D0DC" mask="url(#path-333-inside-166_0_8150)"/>
<mask id="path-335-inside-167_0_8150" fill="white">
<path d="M564 960H660V1056H564V960Z"/>
</mask>
<path d="M660 1056V1057H661V1056H660ZM659 960V1056H661V960H659ZM660 1055H564V1057H660V1055Z" fill="#F4D0DC" mask="url(#path-335-inside-167_0_8150)"/>
<mask id="path-337-inside-168_0_8150" fill="white">
<path d="M660 960H756V1056H660V960Z"/>
</mask>
<path d="M756 1056V1057H757V1056H756ZM755 960V1056H757V960H755ZM756 1055H660V1057H756V1055Z" fill="#F4D0DC" mask="url(#path-337-inside-168_0_8150)"/>
<mask id="path-339-inside-169_0_8150" fill="white">
<path d="M756 960H852V1056H756V960Z"/>
</mask>
<path d="M756 960H852V1056H756V960Z" fill="#F4D0DC"/>
<path d="M852 1056V1057H853V1056H852ZM851 960V1056H853V960H851ZM852 1055H756V1057H852V1055Z" fill="#F4D0DC" mask="url(#path-339-inside-169_0_8150)"/>
<mask id="path-341-inside-170_0_8150" fill="white">
<path d="M852 960H948V1056H852V960Z"/>
</mask>
<path d="M948 1056V1057H949V1056H948ZM947 960V1056H949V960H947ZM948 1055H852V1057H948V1055Z" fill="#F4D0DC" mask="url(#path-341-inside-170_0_8150)"/>
<mask id="path-343-inside-171_0_8150" fill="white">
<path d="M948 960H1044V1056H948V960Z"/>
</mask>
<path d="M1044 1056V1057H1045V1056H1044ZM1043 960V1056H1045V960H1043ZM1044 1055H948V1057H1044V1055Z" fill="#F4D0DC" mask="url(#path-343-inside-171_0_8150)"/>
<mask id="path-345-inside-172_0_8150" fill="white">
<path d="M1044 960H1140V1056H1044V960Z"/>
</mask>
<path d="M1140 1056V1057H1141V1056H1140ZM1139 960V1056H1141V960H1139ZM1140 1055H1044V1057H1140V1055Z" fill="#F4D0DC" mask="url(#path-345-inside-172_0_8150)"/>
<mask id="path-347-inside-173_0_8150" fill="white">
<path d="M1140 960H1236V1056H1140V960Z"/>
</mask>
<path d="M1236 1056V1057H1237V1056H1236ZM1235 960V1056H1237V960H1235ZM1236 1055H1140V1057H1236V1055Z" fill="#F4D0DC" mask="url(#path-347-inside-173_0_8150)"/>
<mask id="path-349-inside-174_0_8150" fill="white">
<path d="M1236 960H1332V1056H1236V960Z"/>
</mask>
<path d="M1332 1056V1057H1333V1056H1332ZM1331 960V1056H1333V960H1331ZM1332 1055H1236V1057H1332V1055Z" fill="#F4D0DC" mask="url(#path-349-inside-174_0_8150)"/>
<mask id="path-351-inside-175_0_8150" fill="white">
<path d="M1332 960H1428V1056H1332V960Z"/>
</mask>
<path d="M1428 1056V1057H1429V1056H1428ZM1427 960V1056H1429V960H1427ZM1428 1055H1332V1057H1428V1055Z" fill="#F4D0DC" mask="url(#path-351-inside-175_0_8150)"/>
<mask id="path-353-inside-176_0_8150" fill="white">
<path d="M1428 960H1524V1056H1428V960Z"/>
</mask>
<path d="M1524 1056V1057H1525V1056H1524ZM1523 960V1056H1525V960H1523ZM1524 1055H1428V1057H1524V1055Z" fill="#F4D0DC" mask="url(#path-353-inside-176_0_8150)"/>
<g opacity="0.5">
<mask id="path-355-inside-177_0_8150" fill="white">
<path d="M-12 1056H84V1152H-12V1056Z"/>
</mask>
<path d="M-12 1056H84V1152H-12V1056Z" fill="#F4D0DC"/>
<path d="M84 1152V1153H85V1152H84ZM83 1056V1152H85V1056H83ZM84 1151H-12V1153H84V1151Z" fill="#F4D0DC" mask="url(#path-355-inside-177_0_8150)"/>
<mask id="path-357-inside-178_0_8150" fill="white">
<path d="M84 1056H180V1152H84V1056Z"/>
</mask>
<path d="M180 1152V1153H181V1152H180ZM179 1056V1152H181V1056H179ZM180 1151H84V1153H180V1151Z" fill="#F4D0DC" mask="url(#path-357-inside-178_0_8150)"/>
<mask id="path-359-inside-179_0_8150" fill="white">
<path d="M180 1056H276V1152H180V1056Z"/>
</mask>
<path d="M276 1152V1153H277V1152H276ZM275 1056V1152H277V1056H275ZM276 1151H180V1153H276V1151Z" fill="#F4D0DC" mask="url(#path-359-inside-179_0_8150)"/>
<mask id="path-361-inside-180_0_8150" fill="white">
<path d="M276 1056H372V1152H276V1056Z"/>
</mask>
<path d="M372 1152V1153H373V1152H372ZM371 1056V1152H373V1056H371ZM372 1151H276V1153H372V1151Z" fill="#F4D0DC" mask="url(#path-361-inside-180_0_8150)"/>
<mask id="path-363-inside-181_0_8150" fill="white">
<path d="M372 1056H468V1152H372V1056Z"/>
</mask>
<path d="M468 1152V1153H469V1152H468ZM467 1056V1152H469V1056H467ZM468 1151H372V1153H468V1151Z" fill="#F4D0DC" mask="url(#path-363-inside-181_0_8150)"/>
<mask id="path-365-inside-182_0_8150" fill="white">
<path d="M468 1056H564V1152H468V1056Z"/>
</mask>
<path d="M564 1152V1153H565V1152H564ZM563 1056V1152H565V1056H563ZM564 1151H468V1153H564V1151Z" fill="#F4D0DC" mask="url(#path-365-inside-182_0_8150)"/>
<mask id="path-367-inside-183_0_8150" fill="white">
<path d="M564 1056H660V1152H564V1056Z"/>
</mask>
<path d="M660 1152V1153H661V1152H660ZM659 1056V1152H661V1056H659ZM660 1151H564V1153H660V1151Z" fill="#F4D0DC" mask="url(#path-367-inside-183_0_8150)"/>
<mask id="path-369-inside-184_0_8150" fill="white">
<path d="M660 1056H756V1152H660V1056Z"/>
</mask>
<path d="M756 1152V1153H757V1152H756ZM755 1056V1152H757V1056H755ZM756 1151H660V1153H756V1151Z" fill="#F4D0DC" mask="url(#path-369-inside-184_0_8150)"/>
<mask id="path-371-inside-185_0_8150" fill="white">
<path d="M756 1056H852V1152H756V1056Z"/>
</mask>
<path d="M852 1152V1153H853V1152H852ZM851 1056V1152H853V1056H851ZM852 1151H756V1153H852V1151Z" fill="#F4D0DC" mask="url(#path-371-inside-185_0_8150)"/>
<mask id="path-373-inside-186_0_8150" fill="white">
<path d="M852 1056H948V1152H852V1056Z"/>
</mask>
<path d="M948 1152V1153H949V1152H948ZM947 1056V1152H949V1056H947ZM948 1151H852V1153H948V1151Z" fill="#F4D0DC" mask="url(#path-373-inside-186_0_8150)"/>
<mask id="path-375-inside-187_0_8150" fill="white">
<path d="M948 1056H1044V1152H948V1056Z"/>
</mask>
<path d="M1044 1152V1153H1045V1152H1044ZM1043 1056V1152H1045V1056H1043ZM1044 1151H948V1153H1044V1151Z" fill="#F4D0DC" mask="url(#path-375-inside-187_0_8150)"/>
<mask id="path-377-inside-188_0_8150" fill="white">
<path d="M1044 1056H1140V1152H1044V1056Z"/>
</mask>
<path d="M1140 1152V1153H1141V1152H1140ZM1139 1056V1152H1141V1056H1139ZM1140 1151H1044V1153H1140V1151Z" fill="#F4D0DC" mask="url(#path-377-inside-188_0_8150)"/>
<mask id="path-379-inside-189_0_8150" fill="white">
<path d="M1140 1056H1236V1152H1140V1056Z"/>
</mask>
<path d="M1140 1056H1236V1152H1140V1056Z" fill="#F4D0DC"/>
<path d="M1236 1152V1153H1237V1152H1236ZM1235 1056V1152H1237V1056H1235ZM1236 1151H1140V1153H1236V1151Z" fill="#F4D0DC" mask="url(#path-379-inside-189_0_8150)"/>
<mask id="path-381-inside-190_0_8150" fill="white">
<path d="M1236 1056H1332V1152H1236V1056Z"/>
</mask>
<path d="M1332 1152V1153H1333V1152H1332ZM1331 1056V1152H1333V1056H1331ZM1332 1151H1236V1153H1332V1151Z" fill="#F4D0DC" mask="url(#path-381-inside-190_0_8150)"/>
<mask id="path-383-inside-191_0_8150" fill="white">
<path d="M1332 1056H1428V1152H1332V1056Z"/>
</mask>
<path d="M1428 1152V1153H1429V1152H1428ZM1427 1056V1152H1429V1056H1427ZM1428 1151H1332V1153H1428V1151Z" fill="#F4D0DC" mask="url(#path-383-inside-191_0_8150)"/>
<mask id="path-385-inside-192_0_8150" fill="white">
<path d="M1428 1056H1524V1152H1428V1056Z"/>
</mask>
<path d="M1524 1152V1153H1525V1152H1524ZM1523 1056V1152H1525V1056H1523ZM1524 1151H1428V1153H1524V1151Z" fill="#F4D0DC" mask="url(#path-385-inside-192_0_8150)"/>
</g>
</g>
<rect x="-203.5" y="0.5" width="1919" height="1151" stroke="#F4D0DC"/>
</g>
</g>
<defs>
<radialGradient id="paint0_radial_0_8150" cx="0" cy="0" r="1" gradientUnits="userSpaceOnUse" gradientTransform="translate(756 -0.00017246) rotate(90) scale(1446.7 789.167)">
<stop/>
<stop offset="0.953125" stop-opacity="0"/>
</radialGradient>
<clipPath id="clip0_0_8150">
<rect width="1512" height="1440" fill="white"/>
</clipPath>
<clipPath id="clip1_0_8150">
<rect x="-204" width="1920" height="1152" fill="white"/>
</clipPath>
</defs>
</svg>
