<svg width="1512" height="1440" fill="none" xmlns="http://www.w3.org/2000/svg"><g opacity=".4" clip-path="url(#a)"><mask id="c" style="mask-type:alpha" maskUnits="userSpaceOnUse" x="0" y="0" width="1512" height="1447"><path fill="url(#b)" d="M0 0h1512v1446.7H0z"/></mask><g mask="url(#c)"><g clip-path="url(#d)"><mask id="e" fill="#fff"><path d="M-12 0h96v96h-96V0z"/></mask><path d="M84 96v1h1v-1h-1zM83 0v96h2V0h-2zm1 95h-96v2h96v-2z" fill="#F4D0DC" mask="url(#e)"/><mask id="f" fill="#fff"><path d="M84 0h96v96H84V0z"/></mask><path d="M180 96v1h1v-1h-1zm-1-96v96h2V0h-2zm1 95H84v2h96v-2z" fill="#F4D0DC" mask="url(#f)"/><mask id="g" fill="#fff"><path d="M180 0h96v96h-96V0z"/></mask><path d="M276 96v1h1v-1h-1zm-1-96v96h2V0h-2zm1 95h-96v2h96v-2z" fill="#F4D0DC" mask="url(#g)"/><mask id="h" fill="#fff"><path d="M276 0h96v96h-96V0z"/></mask><path d="M372 96v1h1v-1h-1zm-1-96v96h2V0h-2zm1 95h-96v2h96v-2z" fill="#F4D0DC" mask="url(#h)"/><mask id="i" fill="#fff"><path d="M372 0h96v96h-96V0z"/></mask><path d="M468 96v1h1v-1h-1zm-1-96v96h2V0h-2zm1 95h-96v2h96v-2z" fill="#F4D0DC" mask="url(#i)"/><mask id="j" fill="#fff"><path d="M468 0h96v96h-96V0z"/></mask><path d="M564 96v1h1v-1h-1zm-1-96v96h2V0h-2zm1 95h-96v2h96v-2z" fill="#F4D0DC" mask="url(#j)"/><mask id="k" fill="#fff"><path d="M564 0h96v96h-96V0z"/></mask><path d="M660 96v1h1v-1h-1zm-1-96v96h2V0h-2zm1 95h-96v2h96v-2z" fill="#F4D0DC" mask="url(#k)"/><mask id="l" fill="#fff"><path d="M660 0h96v96h-96V0z"/></mask><path d="M756 96v1h1v-1h-1zm-1-96v96h2V0h-2zm1 95h-96v2h96v-2z" fill="#F4D0DC" mask="url(#l)"/><mask id="m" fill="#fff"><path d="M756 0h96v96h-96V0z"/></mask><path d="M852 96v1h1v-1h-1zm-1-96v96h2V0h-2zm1 95h-96v2h96v-2z" fill="#F4D0DC" mask="url(#m)"/><mask id="n" fill="#fff"><path d="M852 0h96v96h-96V0z"/></mask><path d="M948 96v1h1v-1h-1zm-1-96v96h2V0h-2zm1 95h-96v2h96v-2z" fill="#F4D0DC" mask="url(#n)"/><mask id="o" fill="#fff"><path d="M948 0h96v96h-96V0z"/></mask><path d="M1044 96v1h1v-1h-1zm-1-96v96h2V0h-2zm1 95h-96v2h96v-2z" fill="#F4D0DC" mask="url(#o)"/><mask id="p" fill="#fff"><path d="M1044 0h96v96h-96V0z"/></mask><path d="M1140 96v1h1v-1h-1zm-1-96v96h2V0h-2zm1 95h-96v2h96v-2z" fill="#F4D0DC" mask="url(#p)"/><mask id="q" fill="#fff"><path d="M1140 0h96v96h-96V0z"/></mask><path d="M1236 96v1h1v-1h-1zm-1-96v96h2V0h-2zm1 95h-96v2h96v-2z" fill="#F4D0DC" mask="url(#q)"/><mask id="r" fill="#fff"><path d="M1236 0h96v96h-96V0z"/></mask><path d="M1332 96v1h1v-1h-1zm-1-96v96h2V0h-2zm1 95h-96v2h96v-2z" fill="#F4D0DC" mask="url(#r)"/><mask id="s" fill="#fff"><path d="M1332 0h96v96h-96V0z"/></mask><path d="M1428 96v1h1v-1h-1zm-1-96v96h2V0h-2zm1 95h-96v2h96v-2z" fill="#F4D0DC" mask="url(#s)"/><mask id="t" fill="#fff"><path d="M1428 0h96v96h-96V0z"/></mask><path d="M1524 96v1h1v-1h-1zm-1-96v96h2V0h-2zm1 95h-96v2h96v-2z" fill="#F4D0DC" mask="url(#t)"/><mask id="u" fill="#fff"><path d="M-12 96h96v96h-96V96z"/></mask><path d="M84 192v1h1v-1h-1zm-1-96v96h2V96h-2zm1 95h-96v2h96v-2z" fill="#F4D0DC" mask="url(#u)"/><mask id="v" fill="#fff"><path d="M84 96h96v96H84V96z"/></mask><path d="M180 192v1h1v-1h-1zm-1-96v96h2V96h-2zm1 95H84v2h96v-2z" fill="#F4D0DC" mask="url(#v)"/><mask id="w" fill="#fff"><path d="M180 96h96v96h-96V96z"/></mask><path d="M276 192v1h1v-1h-1zm-1-96v96h2V96h-2zm1 95h-96v2h96v-2z" fill="#F4D0DC" mask="url(#w)"/><mask id="x" fill="#fff"><path d="M276 96h96v96h-96V96z"/></mask><path d="M276 96h96v96h-96V96z" fill="#F4D0DC"/><path d="M372 192v1h1v-1h-1zm-1-96v96h2V96h-2zm1 95h-96v2h96v-2z" fill="#F4D0DC" mask="url(#x)"/><mask id="y" fill="#fff"><path d="M372 96h96v96h-96V96z"/></mask><path d="M468 192v1h1v-1h-1zm-1-96v96h2V96h-2zm1 95h-96v2h96v-2z" fill="#F4D0DC" mask="url(#y)"/><mask id="z" fill="#fff"><path d="M468 96h96v96h-96V96z"/></mask><path d="M564 192v1h1v-1h-1zm-1-96v96h2V96h-2zm1 95h-96v2h96v-2z" fill="#F4D0DC" mask="url(#z)"/><mask id="A" fill="#fff"><path d="M564 96h96v96h-96V96z"/></mask><path d="M660 192v1h1v-1h-1zm-1-96v96h2V96h-2zm1 95h-96v2h96v-2z" fill="#F4D0DC" mask="url(#A)"/><mask id="B" fill="#fff"><path d="M660 96h96v96h-96V96z"/></mask><path d="M756 192v1h1v-1h-1zm-1-96v96h2V96h-2zm1 95h-96v2h96v-2z" fill="#F4D0DC" mask="url(#B)"/><mask id="C" fill="#fff"><path d="M756 96h96v96h-96V96z"/></mask><path d="M852 192v1h1v-1h-1zm-1-96v96h2V96h-2zm1 95h-96v2h96v-2z" fill="#F4D0DC" mask="url(#C)"/><mask id="D" fill="#fff"><path d="M852 96h96v96h-96V96z"/></mask><path d="M948 192v1h1v-1h-1zm-1-96v96h2V96h-2zm1 95h-96v2h96v-2z" fill="#F4D0DC" mask="url(#D)"/><mask id="E" fill="#fff"><path d="M948 96h96v96h-96V96z"/></mask><path d="M1044 192v1h1v-1h-1zm-1-96v96h2V96h-2zm1 95h-96v2h96v-2z" fill="#F4D0DC" mask="url(#E)"/><mask id="F" fill="#fff"><path d="M1044 96h96v96h-96V96z"/></mask><path d="M1140 192v1h1v-1h-1zm-1-96v96h2V96h-2zm1 95h-96v2h96v-2z" fill="#F4D0DC" mask="url(#F)"/><mask id="G" fill="#fff"><path d="M1140 96h96v96h-96V96z"/></mask><path d="M1140 96h96v96h-96V96z" fill="#F4D0DC"/><path d="M1236 192v1h1v-1h-1zm-1-96v96h2V96h-2zm1 95h-96v2h96v-2z" fill="#F4D0DC" mask="url(#G)"/><mask id="H" fill="#fff"><path d="M1236 96h96v96h-96V96z"/></mask><path d="M1332 192v1h1v-1h-1zm-1-96v96h2V96h-2zm1 95h-96v2h96v-2z" fill="#F4D0DC" mask="url(#H)"/><mask id="I" fill="#fff"><path d="M1332 96h96v96h-96V96z"/></mask><path d="M1428 192v1h1v-1h-1zm-1-96v96h2V96h-2zm1 95h-96v2h96v-2z" fill="#F4D0DC" mask="url(#I)"/><mask id="J" fill="#fff"><path d="M1428 96h96v96h-96V96z"/></mask><path d="M1524 192v1h1v-1h-1zm-1-96v96h2V96h-2zm1 95h-96v2h96v-2z" fill="#F4D0DC" mask="url(#J)"/><mask id="K" fill="#fff"><path d="M-12 192h96v96h-96v-96z"/></mask><path d="M84 288v1h1v-1h-1zm-1-96v96h2v-96h-2zm1 95h-96v2h96v-2z" fill="#F4D0DC" mask="url(#K)"/><mask id="L" fill="#fff"><path d="M84 192h96v96H84v-96z"/></mask><path d="M180 288v1h1v-1h-1zm-1-96v96h2v-96h-2zm1 95H84v2h96v-2z" fill="#F4D0DC" mask="url(#L)"/><mask id="M" fill="#fff"><path d="M180 192h96v96h-96v-96z"/></mask><path d="M276 288v1h1v-1h-1zm-1-96v96h2v-96h-2zm1 95h-96v2h96v-2z" fill="#F4D0DC" mask="url(#M)"/><mask id="N" fill="#fff"><path d="M276 192h96v96h-96v-96z"/></mask><path d="M372 288v1h1v-1h-1zm-1-96v96h2v-96h-2zm1 95h-96v2h96v-2z" fill="#F4D0DC" mask="url(#N)"/><mask id="O" fill="#fff"><path d="M372 192h96v96h-96v-96z"/></mask><path d="M468 288v1h1v-1h-1zm-1-96v96h2v-96h-2zm1 95h-96v2h96v-2z" fill="#F4D0DC" mask="url(#O)"/><mask id="P" fill="#fff"><path d="M468 192h96v96h-96v-96z"/></mask><path d="M468 192h96v96h-96v-96z" fill="#F4D0DC"/><path d="M564 288v1h1v-1h-1zm-1-96v96h2v-96h-2zm1 95h-96v2h96v-2z" fill="#F4D0DC" mask="url(#P)"/><mask id="Q" fill="#fff"><path d="M564 192h96v96h-96v-96z"/></mask><path d="M660 288v1h1v-1h-1zm-1-96v96h2v-96h-2zm1 95h-96v2h96v-2z" fill="#F4D0DC" mask="url(#Q)"/><mask id="R" fill="#fff"><path d="M660 192h96v96h-96v-96z"/></mask><path d="M756 288v1h1v-1h-1zm-1-96v96h2v-96h-2zm1 95h-96v2h96v-2z" fill="#F4D0DC" mask="url(#R)"/><mask id="S" fill="#fff"><path d="M756 192h96v96h-96v-96z"/></mask><path d="M852 288v1h1v-1h-1zm-1-96v96h2v-96h-2zm1 95h-96v2h96v-2z" fill="#F4D0DC" mask="url(#S)"/><mask id="T" fill="#fff"><path d="M852 192h96v96h-96v-96z"/></mask><path d="M852 192h96v96h-96v-96z" fill="#F4D0DC"/><path d="M948 288v1h1v-1h-1zm-1-96v96h2v-96h-2zm1 95h-96v2h96v-2z" fill="#F4D0DC" mask="url(#T)"/><mask id="U" fill="#fff"><path d="M948 192h96v96h-96v-96z"/></mask><path d="M1044 288v1h1v-1h-1zm-1-96v96h2v-96h-2zm1 95h-96v2h96v-2z" fill="#F4D0DC" mask="url(#U)"/><mask id="V" fill="#fff"><path d="M1044 192h96v96h-96v-96z"/></mask><path d="M1140 288v1h1v-1h-1zm-1-96v96h2v-96h-2zm1 95h-96v2h96v-2z" fill="#F4D0DC" mask="url(#V)"/><mask id="W" fill="#fff"><path d="M1140 192h96v96h-96v-96z"/></mask><path d="M1236 288v1h1v-1h-1zm-1-96v96h2v-96h-2zm1 95h-96v2h96v-2z" fill="#F4D0DC" mask="url(#W)"/><mask id="X" fill="#fff"><path d="M1236 192h96v96h-96v-96z"/></mask><path d="M1332 288v1h1v-1h-1zm-1-96v96h2v-96h-2zm1 95h-96v2h96v-2z" fill="#F4D0DC" mask="url(#X)"/><mask id="Y" fill="#fff"><path d="M1332 192h96v96h-96v-96z"/></mask><path d="M1428 288v1h1v-1h-1zm-1-96v96h2v-96h-2zm1 95h-96v2h96v-2z" fill="#F4D0DC" mask="url(#Y)"/><mask id="Z" fill="#fff"><path d="M1428 192h96v96h-96v-96z"/></mask><path d="M1524 288v1h1v-1h-1zm-1-96v96h2v-96h-2zm1 95h-96v2h96v-2z" fill="#F4D0DC" mask="url(#Z)"/><mask id="aa" fill="#fff"><path d="M-12 288h96v96h-96v-96z"/></mask><path d="M-12 288h96v96h-96v-96z" fill="#F4D0DC"/><path d="M84 384v1h1v-1h-1zm-1-96v96h2v-96h-2zm1 95h-96v2h96v-2z" fill="#F4D0DC" mask="url(#aa)"/><mask id="ab" fill="#fff"><path d="M84 288h96v96H84v-96z"/></mask><path d="M180 384v1h1v-1h-1zm-1-96v96h2v-96h-2zm1 95H84v2h96v-2z" fill="#F4D0DC" mask="url(#ab)"/><mask id="ac" fill="#fff"><path d="M180 288h96v96h-96v-96z"/></mask><path d="M276 384v1h1v-1h-1zm-1-96v96h2v-96h-2zm1 95h-96v2h96v-2z" fill="#F4D0DC" mask="url(#ac)"/><mask id="ad" fill="#fff"><path d="M276 288h96v96h-96v-96z"/></mask><path d="M372 384v1h1v-1h-1zm-1-96v96h2v-96h-2zm1 95h-96v2h96v-2z" fill="#F4D0DC" mask="url(#ad)"/><mask id="ae" fill="#fff"><path d="M372 288h96v96h-96v-96z"/></mask><path d="M468 384v1h1v-1h-1zm-1-96v96h2v-96h-2zm1 95h-96v2h96v-2z" fill="#F4D0DC" mask="url(#ae)"/><mask id="af" fill="#fff"><path d="M468 288h96v96h-96v-96z"/></mask><path d="M564 384v1h1v-1h-1zm-1-96v96h2v-96h-2zm1 95h-96v2h96v-2z" fill="#F4D0DC" mask="url(#af)"/><mask id="ag" fill="#fff"><path d="M564 288h96v96h-96v-96z"/></mask><path d="M660 384v1h1v-1h-1zm-1-96v96h2v-96h-2zm1 95h-96v2h96v-2z" fill="#F4D0DC" mask="url(#ag)"/><mask id="ah" fill="#fff"><path d="M660 288h96v96h-96v-96z"/></mask><path d="M756 384v1h1v-1h-1zm-1-96v96h2v-96h-2zm1 95h-96v2h96v-2z" fill="#F4D0DC" mask="url(#ah)"/><mask id="ai" fill="#fff"><path d="M756 288h96v96h-96v-96z"/></mask><path d="M852 384v1h1v-1h-1zm-1-96v96h2v-96h-2zm1 95h-96v2h96v-2z" fill="#F4D0DC" mask="url(#ai)"/><mask id="aj" fill="#fff"><path d="M852 288h96v96h-96v-96z"/></mask><path d="M948 384v1h1v-1h-1zm-1-96v96h2v-96h-2zm1 95h-96v2h96v-2z" fill="#F4D0DC" mask="url(#aj)"/><mask id="ak" fill="#fff"><path d="M948 288h96v96h-96v-96z"/></mask><path d="M1044 384v1h1v-1h-1zm-1-96v96h2v-96h-2zm1 95h-96v2h96v-2z" fill="#F4D0DC" mask="url(#ak)"/><mask id="al" fill="#fff"><path d="M1044 288h96v96h-96v-96z"/></mask><path d="M1140 384v1h1v-1h-1zm-1-96v96h2v-96h-2zm1 95h-96v2h96v-2z" fill="#F4D0DC" mask="url(#al)"/><mask id="am" fill="#fff"><path d="M1140 288h96v96h-96v-96z"/></mask><path d="M1140 288h96v96h-96v-96z" fill="#F4D0DC"/><path d="M1236 384v1h1v-1h-1zm-1-96v96h2v-96h-2zm1 95h-96v2h96v-2z" fill="#F4D0DC" mask="url(#am)"/><mask id="an" fill="#fff"><path d="M1236 288h96v96h-96v-96z"/></mask><path d="M1332 384v1h1v-1h-1zm-1-96v96h2v-96h-2zm1 95h-96v2h96v-2z" fill="#F4D0DC" mask="url(#an)"/><mask id="ao" fill="#fff"><path d="M1332 288h96v96h-96v-96z"/></mask><path d="M1428 384v1h1v-1h-1zm-1-96v96h2v-96h-2zm1 95h-96v2h96v-2z" fill="#F4D0DC" mask="url(#ao)"/><mask id="ap" fill="#fff"><path d="M1428 288h96v96h-96v-96z"/></mask><path d="M1524 384v1h1v-1h-1zm-1-96v96h2v-96h-2zm1 95h-96v2h96v-2z" fill="#F4D0DC" mask="url(#ap)"/><mask id="aq" fill="#fff"><path d="M-12 384h96v96h-96v-96z"/></mask><path d="M84 480v1h1v-1h-1zm-1-96v96h2v-96h-2zm1 95h-96v2h96v-2z" fill="#F4D0DC" mask="url(#aq)"/><mask id="ar" fill="#fff"><path d="M84 384h96v96H84v-96z"/></mask><path d="M180 480v1h1v-1h-1zm-1-96v96h2v-96h-2zm1 95H84v2h96v-2z" fill="#F4D0DC" mask="url(#ar)"/><mask id="as" fill="#fff"><path d="M180 384h96v96h-96v-96z"/></mask><path d="M276 480v1h1v-1h-1zm-1-96v96h2v-96h-2zm1 95h-96v2h96v-2z" fill="#F4D0DC" mask="url(#as)"/><mask id="at" fill="#fff"><path d="M276 384h96v96h-96v-96z"/></mask><path d="M372 480v1h1v-1h-1zm-1-96v96h2v-96h-2zm1 95h-96v2h96v-2z" fill="#F4D0DC" mask="url(#at)"/><mask id="au" fill="#fff"><path d="M372 384h96v96h-96v-96z"/></mask><path d="M468 480v1h1v-1h-1zm-1-96v96h2v-96h-2zm1 95h-96v2h96v-2z" fill="#F4D0DC" mask="url(#au)"/><mask id="av" fill="#fff"><path d="M468 384h96v96h-96v-96z"/></mask><path d="M564 480v1h1v-1h-1zm-1-96v96h2v-96h-2zm1 95h-96v2h96v-2z" fill="#F4D0DC" mask="url(#av)"/><mask id="aw" fill="#fff"><path d="M564 384h96v96h-96v-96z"/></mask><path d="M564 384h96v96h-96v-96z" fill="#F4D0DC"/><path d="M660 480v1h1v-1h-1zm-1-96v96h2v-96h-2zm1 95h-96v2h96v-2z" fill="#F4D0DC" mask="url(#aw)"/><mask id="ax" fill="#fff"><path d="M660 384h96v96h-96v-96z"/></mask><path d="M756 480v1h1v-1h-1zm-1-96v96h2v-96h-2zm1 95h-96v2h96v-2z" fill="#F4D0DC" mask="url(#ax)"/><mask id="ay" fill="#fff"><path d="M756 384h96v96h-96v-96z"/></mask><path d="M852 480v1h1v-1h-1zm-1-96v96h2v-96h-2zm1 95h-96v2h96v-2z" fill="#F4D0DC" mask="url(#ay)"/><mask id="az" fill="#fff"><path d="M852 384h96v96h-96v-96z"/></mask><path d="M948 480v1h1v-1h-1zm-1-96v96h2v-96h-2zm1 95h-96v2h96v-2z" fill="#F4D0DC" mask="url(#az)"/><mask id="aA" fill="#fff"><path d="M948 384h96v96h-96v-96z"/></mask><path d="M1044 480v1h1v-1h-1zm-1-96v96h2v-96h-2zm1 95h-96v2h96v-2z" fill="#F4D0DC" mask="url(#aA)"/><mask id="aB" fill="#fff"><path d="M1044 384h96v96h-96v-96z"/></mask><path d="M1140 480v1h1v-1h-1zm-1-96v96h2v-96h-2zm1 95h-96v2h96v-2z" fill="#F4D0DC" mask="url(#aB)"/><mask id="aC" fill="#fff"><path d="M1140 384h96v96h-96v-96z"/></mask><path d="M1236 480v1h1v-1h-1zm-1-96v96h2v-96h-2zm1 95h-96v2h96v-2z" fill="#F4D0DC" mask="url(#aC)"/><mask id="aD" fill="#fff"><path d="M1236 384h96v96h-96v-96z"/></mask><path d="M1332 480v1h1v-1h-1zm-1-96v96h2v-96h-2zm1 95h-96v2h96v-2z" fill="#F4D0DC" mask="url(#aD)"/><mask id="aE" fill="#fff"><path d="M1332 384h96v96h-96v-96z"/></mask><path d="M1428 480v1h1v-1h-1zm-1-96v96h2v-96h-2zm1 95h-96v2h96v-2z" fill="#F4D0DC" mask="url(#aE)"/><mask id="aF" fill="#fff"><path d="M1428 384h96v96h-96v-96z"/></mask><path d="M1524 480v1h1v-1h-1zm-1-96v96h2v-96h-2zm1 95h-96v2h96v-2z" fill="#F4D0DC" mask="url(#aF)"/><mask id="aG" fill="#fff"><path d="M-12 480h96v96h-96v-96z"/></mask><path d="M84 576v1h1v-1h-1zm-1-96v96h2v-96h-2zm1 95h-96v2h96v-2z" fill="#F4D0DC" mask="url(#aG)"/><mask id="aH" fill="#fff"><path d="M84 480h96v96H84v-96z"/></mask><path d="M180 576v1h1v-1h-1zm-1-96v96h2v-96h-2zm1 95H84v2h96v-2z" fill="#F4D0DC" mask="url(#aH)"/><mask id="aI" fill="#fff"><path d="M180 480h96v96h-96v-96z"/></mask><path d="M276 576v1h1v-1h-1zm-1-96v96h2v-96h-2zm1 95h-96v2h96v-2z" fill="#F4D0DC" mask="url(#aI)"/><mask id="aJ" fill="#fff"><path d="M276 480h96v96h-96v-96z"/></mask><path d="M276 480h96v96h-96v-96z" fill="#F4D0DC"/><path d="M372 576v1h1v-1h-1zm-1-96v96h2v-96h-2zm1 95h-96v2h96v-2z" fill="#F4D0DC" mask="url(#aJ)"/><mask id="aK" fill="#fff"><path d="M372 480h96v96h-96v-96z"/></mask><path d="M468 576v1h1v-1h-1zm-1-96v96h2v-96h-2zm1 95h-96v2h96v-2z" fill="#F4D0DC" mask="url(#aK)"/><mask id="aL" fill="#fff"><path d="M468 480h96v96h-96v-96z"/></mask><path d="M564 576v1h1v-1h-1zm-1-96v96h2v-96h-2zm1 95h-96v2h96v-2z" fill="#F4D0DC" mask="url(#aL)"/><mask id="aM" fill="#fff"><path d="M564 480h96v96h-96v-96z"/></mask><path d="M660 576v1h1v-1h-1zm-1-96v96h2v-96h-2zm1 95h-96v2h96v-2z" fill="#F4D0DC" mask="url(#aM)"/><mask id="aN" fill="#fff"><path d="M660 480h96v96h-96v-96z"/></mask><path d="M756 576v1h1v-1h-1zm-1-96v96h2v-96h-2zm1 95h-96v2h96v-2z" fill="#F4D0DC" mask="url(#aN)"/><mask id="aO" fill="#fff"><path d="M756 480h96v96h-96v-96z"/></mask><path d="M852 576v1h1v-1h-1zm-1-96v96h2v-96h-2zm1 95h-96v2h96v-2z" fill="#F4D0DC" mask="url(#aO)"/><mask id="aP" fill="#fff"><path d="M852 480h96v96h-96v-96z"/></mask><path d="M852 480h96v96h-96v-96z" fill="#F4D0DC"/><path d="M948 576v1h1v-1h-1zm-1-96v96h2v-96h-2zm1 95h-96v2h96v-2z" fill="#F4D0DC" mask="url(#aP)"/><mask id="aQ" fill="#fff"><path d="M948 480h96v96h-96v-96z"/></mask><path d="M1044 576v1h1v-1h-1zm-1-96v96h2v-96h-2zm1 95h-96v2h96v-2z" fill="#F4D0DC" mask="url(#aQ)"/><mask id="aR" fill="#fff"><path d="M1044 480h96v96h-96v-96z"/></mask><path d="M1140 576v1h1v-1h-1zm-1-96v96h2v-96h-2zm1 95h-96v2h96v-2z" fill="#F4D0DC" mask="url(#aR)"/><mask id="aS" fill="#fff"><path d="M1140 480h96v96h-96v-96z"/></mask><path d="M1236 576v1h1v-1h-1zm-1-96v96h2v-96h-2zm1 95h-96v2h96v-2z" fill="#F4D0DC" mask="url(#aS)"/><mask id="aT" fill="#fff"><path d="M1236 480h96v96h-96v-96z"/></mask><path d="M1332 576v1h1v-1h-1zm-1-96v96h2v-96h-2zm1 95h-96v2h96v-2z" fill="#F4D0DC" mask="url(#aT)"/><mask id="aU" fill="#fff"><path d="M1332 480h96v96h-96v-96z"/></mask><path d="M1428 576v1h1v-1h-1zm-1-96v96h2v-96h-2zm1 95h-96v2h96v-2z" fill="#F4D0DC" mask="url(#aU)"/><mask id="aV" fill="#fff"><path d="M1428 480h96v96h-96v-96z"/></mask><path d="M1524 576v1h1v-1h-1zm-1-96v96h2v-96h-2zm1 95h-96v2h96v-2z" fill="#F4D0DC" mask="url(#aV)"/><mask id="aW" fill="#fff"><path d="M-12 576h96v96h-96v-96z"/></mask><path d="M84 672v1h1v-1h-1zm-1-96v96h2v-96h-2zm1 95h-96v2h96v-2z" fill="#F4D0DC" mask="url(#aW)"/><mask id="aX" fill="#fff"><path d="M84 576h96v96H84v-96z"/></mask><path d="M84 576h96v96H84v-96z" fill="#F4D0DC"/><path d="M180 672v1h1v-1h-1zm-1-96v96h2v-96h-2zm1 95H84v2h96v-2z" fill="#F4D0DC" mask="url(#aX)"/><mask id="aY" fill="#fff"><path d="M180 576h96v96h-96v-96z"/></mask><path d="M276 672v1h1v-1h-1zm-1-96v96h2v-96h-2zm1 95h-96v2h96v-2z" fill="#F4D0DC" mask="url(#aY)"/><mask id="aZ" fill="#fff"><path d="M276 576h96v96h-96v-96z"/></mask><path d="M372 672v1h1v-1h-1zm-1-96v96h2v-96h-2zm1 95h-96v2h96v-2z" fill="#F4D0DC" mask="url(#aZ)"/><mask id="ba" fill="#fff"><path d="M372 576h96v96h-96v-96z"/></mask><path d="M468 672v1h1v-1h-1zm-1-96v96h2v-96h-2zm1 95h-96v2h96v-2z" fill="#F4D0DC" mask="url(#ba)"/><mask id="bb" fill="#fff"><path d="M468 576h96v96h-96v-96z"/></mask><path d="M564 672v1h1v-1h-1zm-1-96v96h2v-96h-2zm1 95h-96v2h96v-2z" fill="#F4D0DC" mask="url(#bb)"/><mask id="bc" fill="#fff"><path d="M564 576h96v96h-96v-96z"/></mask><path d="M660 672v1h1v-1h-1zm-1-96v96h2v-96h-2zm1 95h-96v2h96v-2z" fill="#F4D0DC" mask="url(#bc)"/><mask id="bd" fill="#fff"><path d="M660 576h96v96h-96v-96z"/></mask><path d="M756 672v1h1v-1h-1zm-1-96v96h2v-96h-2zm1 95h-96v2h96v-2z" fill="#F4D0DC" mask="url(#bd)"/><mask id="be" fill="#fff"><path d="M756 576h96v96h-96v-96z"/></mask><path d="M852 672v1h1v-1h-1zm-1-96v96h2v-96h-2zm1 95h-96v2h96v-2z" fill="#F4D0DC" mask="url(#be)"/><mask id="bf" fill="#fff"><path d="M852 576h96v96h-96v-96z"/></mask><path d="M948 672v1h1v-1h-1zm-1-96v96h2v-96h-2zm1 95h-96v2h96v-2z" fill="#F4D0DC" mask="url(#bf)"/><mask id="bg" fill="#fff"><path d="M948 576h96v96h-96v-96z"/></mask><path d="M1044 672v1h1v-1h-1zm-1-96v96h2v-96h-2zm1 95h-96v2h96v-2z" fill="#F4D0DC" mask="url(#bg)"/><mask id="bh" fill="#fff"><path d="M1044 576h96v96h-96v-96z"/></mask><path d="M1140 672v1h1v-1h-1zm-1-96v96h2v-96h-2zm1 95h-96v2h96v-2z" fill="#F4D0DC" mask="url(#bh)"/><mask id="bi" fill="#fff"><path d="M1140 576h96v96h-96v-96z"/></mask><path d="M1236 672v1h1v-1h-1zm-1-96v96h2v-96h-2zm1 95h-96v2h96v-2z" fill="#F4D0DC" mask="url(#bi)"/><mask id="bj" fill="#fff"><path d="M1236 576h96v96h-96v-96z"/></mask><path d="M1332 672v1h1v-1h-1zm-1-96v96h2v-96h-2zm1 95h-96v2h96v-2z" fill="#F4D0DC" mask="url(#bj)"/><mask id="bk" fill="#fff"><path d="M1332 576h96v96h-96v-96z"/></mask><path d="M1332 576h96v96h-96v-96z" fill="#F4D0DC"/><path d="M1428 672v1h1v-1h-1zm-1-96v96h2v-96h-2zm1 95h-96v2h96v-2z" fill="#F4D0DC" mask="url(#bk)"/><mask id="bl" fill="#fff"><path d="M1428 576h96v96h-96v-96z"/></mask><path d="M1524 672v1h1v-1h-1zm-1-96v96h2v-96h-2zm1 95h-96v2h96v-2z" fill="#F4D0DC" mask="url(#bl)"/><mask id="bm" fill="#fff"><path d="M-12 672h96v96h-96v-96z"/></mask><path d="M84 768v1h1v-1h-1zm-1-96v96h2v-96h-2zm1 95h-96v2h96v-2z" fill="#F4D0DC" mask="url(#bm)"/><mask id="bn" fill="#fff"><path d="M84 672h96v96H84v-96z"/></mask><path d="M180 768v1h1v-1h-1zm-1-96v96h2v-96h-2zm1 95H84v2h96v-2z" fill="#F4D0DC" mask="url(#bn)"/><mask id="bo" fill="#fff"><path d="M180 672h96v96h-96v-96z"/></mask><path d="M276 768v1h1v-1h-1zm-1-96v96h2v-96h-2zm1 95h-96v2h96v-2z" fill="#F4D0DC" mask="url(#bo)"/><mask id="bp" fill="#fff"><path d="M276 672h96v96h-96v-96z"/></mask><path d="M372 768v1h1v-1h-1zm-1-96v96h2v-96h-2zm1 95h-96v2h96v-2z" fill="#F4D0DC" mask="url(#bp)"/><mask id="bq" fill="#fff"><path d="M372 672h96v96h-96v-96z"/></mask><path d="M468 768v1h1v-1h-1zm-1-96v96h2v-96h-2zm1 95h-96v2h96v-2z" fill="#F4D0DC" mask="url(#bq)"/><mask id="br" fill="#fff"><path d="M468 672h96v96h-96v-96z"/></mask><path d="M564 768v1h1v-1h-1zm-1-96v96h2v-96h-2zm1 95h-96v2h96v-2z" fill="#F4D0DC" mask="url(#br)"/><mask id="bs" fill="#fff"><path d="M564 672h96v96h-96v-96z"/></mask><path d="M564 672h96v96h-96v-96z" fill="#F4D0DC"/><path d="M660 768v1h1v-1h-1zm-1-96v96h2v-96h-2zm1 95h-96v2h96v-2z" fill="#F4D0DC" mask="url(#bs)"/><mask id="bt" fill="#fff"><path d="M660 672h96v96h-96v-96z"/></mask><path d="M756 768v1h1v-1h-1zm-1-96v96h2v-96h-2zm1 95h-96v2h96v-2z" fill="#F4D0DC" mask="url(#bt)"/><mask id="bu" fill="#fff"><path d="M756 672h96v96h-96v-96z"/></mask><path d="M852 768v1h1v-1h-1zm-1-96v96h2v-96h-2zm1 95h-96v2h96v-2z" fill="#F4D0DC" mask="url(#bu)"/><mask id="bv" fill="#fff"><path d="M852 672h96v96h-96v-96z"/></mask><path d="M948 768v1h1v-1h-1zm-1-96v96h2v-96h-2zm1 95h-96v2h96v-2z" fill="#F4D0DC" mask="url(#bv)"/><mask id="bw" fill="#fff"><path d="M948 672h96v96h-96v-96z"/></mask><path d="M1044 768v1h1v-1h-1zm-1-96v96h2v-96h-2zm1 95h-96v2h96v-2z" fill="#F4D0DC" mask="url(#bw)"/><mask id="bx" fill="#fff"><path d="M1044 672h96v96h-96v-96z"/></mask><path d="M1140 768v1h1v-1h-1zm-1-96v96h2v-96h-2zm1 95h-96v2h96v-2z" fill="#F4D0DC" mask="url(#bx)"/><mask id="by" fill="#fff"><path d="M1140 672h96v96h-96v-96z"/></mask><path d="M1140 672h96v96h-96v-96z" fill="#F4D0DC"/><path d="M1236 768v1h1v-1h-1zm-1-96v96h2v-96h-2zm1 95h-96v2h96v-2z" fill="#F4D0DC" mask="url(#by)"/><mask id="bz" fill="#fff"><path d="M1236 672h96v96h-96v-96z"/></mask><path d="M1332 768v1h1v-1h-1zm-1-96v96h2v-96h-2zm1 95h-96v2h96v-2z" fill="#F4D0DC" mask="url(#bz)"/><mask id="bA" fill="#fff"><path d="M1332 672h96v96h-96v-96z"/></mask><path d="M1428 768v1h1v-1h-1zm-1-96v96h2v-96h-2zm1 95h-96v2h96v-2z" fill="#F4D0DC" mask="url(#bA)"/><mask id="bB" fill="#fff"><path d="M1428 672h96v96h-96v-96z"/></mask><path d="M1524 768v1h1v-1h-1zm-1-96v96h2v-96h-2zm1 95h-96v2h96v-2z" fill="#F4D0DC" mask="url(#bB)"/><mask id="bC" fill="#fff"><path d="M-12 768h96v96h-96v-96z"/></mask><path d="M84 864v1h1v-1h-1zm-1-96v96h2v-96h-2zm1 95h-96v2h96v-2z" fill="#F4D0DC" mask="url(#bC)"/><mask id="bD" fill="#fff"><path d="M84 768h96v96H84v-96z"/></mask><path d="M180 864v1h1v-1h-1zm-1-96v96h2v-96h-2zm1 95H84v2h96v-2z" fill="#F4D0DC" mask="url(#bD)"/><mask id="bE" fill="#fff"><path d="M180 768h96v96h-96v-96z"/></mask><path d="M276 864v1h1v-1h-1zm-1-96v96h2v-96h-2zm1 95h-96v2h96v-2z" fill="#F4D0DC" mask="url(#bE)"/><mask id="bF" fill="#fff"><path d="M276 768h96v96h-96v-96z"/></mask><path d="M276 768h96v96h-96v-96z" fill="#F4D0DC"/><path d="M372 864v1h1v-1h-1zm-1-96v96h2v-96h-2zm1 95h-96v2h96v-2z" fill="#F4D0DC" mask="url(#bF)"/><mask id="bG" fill="#fff"><path d="M372 768h96v96h-96v-96z"/></mask><path d="M468 864v1h1v-1h-1zm-1-96v96h2v-96h-2zm1 95h-96v2h96v-2z" fill="#F4D0DC" mask="url(#bG)"/><mask id="bH" fill="#fff"><path d="M468 768h96v96h-96v-96z"/></mask><path d="M564 864v1h1v-1h-1zm-1-96v96h2v-96h-2zm1 95h-96v2h96v-2z" fill="#F4D0DC" mask="url(#bH)"/><mask id="bI" fill="#fff"><path d="M564 768h96v96h-96v-96z"/></mask><path d="M660 864v1h1v-1h-1zm-1-96v96h2v-96h-2zm1 95h-96v2h96v-2z" fill="#F4D0DC" mask="url(#bI)"/><mask id="bJ" fill="#fff"><path d="M660 768h96v96h-96v-96z"/></mask><path d="M756 864v1h1v-1h-1zm-1-96v96h2v-96h-2zm1 95h-96v2h96v-2z" fill="#F4D0DC" mask="url(#bJ)"/><mask id="bK" fill="#fff"><path d="M756 768h96v96h-96v-96z"/></mask><path d="M852 864v1h1v-1h-1zm-1-96v96h2v-96h-2zm1 95h-96v2h96v-2z" fill="#F4D0DC" mask="url(#bK)"/><mask id="bL" fill="#fff"><path d="M852 768h96v96h-96v-96z"/></mask><path d="M852 768h96v96h-96v-96z" fill="#F4D0DC"/><path d="M948 864v1h1v-1h-1zm-1-96v96h2v-96h-2zm1 95h-96v2h96v-2z" fill="#F4D0DC" mask="url(#bL)"/><mask id="bM" fill="#fff"><path d="M948 768h96v96h-96v-96z"/></mask><path d="M1044 864v1h1v-1h-1zm-1-96v96h2v-96h-2zm1 95h-96v2h96v-2z" fill="#F4D0DC" mask="url(#bM)"/><mask id="bN" fill="#fff"><path d="M1044 768h96v96h-96v-96z"/></mask><path d="M1140 864v1h1v-1h-1zm-1-96v96h2v-96h-2zm1 95h-96v2h96v-2z" fill="#F4D0DC" mask="url(#bN)"/><mask id="bO" fill="#fff"><path d="M1140 768h96v96h-96v-96z"/></mask><path d="M1236 864v1h1v-1h-1zm-1-96v96h2v-96h-2zm1 95h-96v2h96v-2z" fill="#F4D0DC" mask="url(#bO)"/><mask id="bP" fill="#fff"><path d="M1236 768h96v96h-96v-96z"/></mask><path d="M1332 864v1h1v-1h-1zm-1-96v96h2v-96h-2zm1 95h-96v2h96v-2z" fill="#F4D0DC" mask="url(#bP)"/><mask id="bQ" fill="#fff"><path d="M1332 768h96v96h-96v-96z"/></mask><path d="M1428 864v1h1v-1h-1zm-1-96v96h2v-96h-2zm1 95h-96v2h96v-2z" fill="#F4D0DC" mask="url(#bQ)"/><mask id="bR" fill="#fff"><path d="M1428 768h96v96h-96v-96z"/></mask><path d="M1524 864v1h1v-1h-1zm-1-96v96h2v-96h-2zm1 95h-96v2h96v-2z" fill="#F4D0DC" mask="url(#bR)"/><mask id="bS" fill="#fff"><path d="M-12 864h96v96h-96v-96z"/></mask><path d="M84 960v1h1v-1h-1zm-1-96v96h2v-96h-2zm1 95h-96v2h96v-2z" fill="#F4D0DC" mask="url(#bS)"/><mask id="bT" fill="#fff"><path d="M84 864h96v96H84v-96z"/></mask><path d="M180 960v1h1v-1h-1zm-1-96v96h2v-96h-2zm1 95H84v2h96v-2z" fill="#F4D0DC" mask="url(#bT)"/><mask id="bU" fill="#fff"><path d="M180 864h96v96h-96v-96z"/></mask><path d="M276 960v1h1v-1h-1zm-1-96v96h2v-96h-2zm1 95h-96v2h96v-2z" fill="#F4D0DC" mask="url(#bU)"/><mask id="bV" fill="#fff"><path d="M276 864h96v96h-96v-96z"/></mask><path d="M372 960v1h1v-1h-1zm-1-96v96h2v-96h-2zm1 95h-96v2h96v-2z" fill="#F4D0DC" mask="url(#bV)"/><mask id="bW" fill="#fff"><path d="M372 864h96v96h-96v-96z"/></mask><path d="M468 960v1h1v-1h-1zm-1-96v96h2v-96h-2zm1 95h-96v2h96v-2z" fill="#F4D0DC" mask="url(#bW)"/><mask id="bX" fill="#fff"><path d="M468 864h96v96h-96v-96z"/></mask><path d="M564 960v1h1v-1h-1zm-1-96v96h2v-96h-2zm1 95h-96v2h96v-2z" fill="#F4D0DC" mask="url(#bX)"/><mask id="bY" fill="#fff"><path d="M564 864h96v96h-96v-96z"/></mask><path d="M660 960v1h1v-1h-1zm-1-96v96h2v-96h-2zm1 95h-96v2h96v-2z" fill="#F4D0DC" mask="url(#bY)"/><mask id="bZ" fill="#fff"><path d="M660 864h96v96h-96v-96z"/></mask><path d="M756 960v1h1v-1h-1zm-1-96v96h2v-96h-2zm1 95h-96v2h96v-2z" fill="#F4D0DC" mask="url(#bZ)"/><mask id="ca" fill="#fff"><path d="M756 864h96v96h-96v-96z"/></mask><path d="M852 960v1h1v-1h-1zm-1-96v96h2v-96h-2zm1 95h-96v2h96v-2z" fill="#F4D0DC" mask="url(#ca)"/><mask id="cb" fill="#fff"><path d="M852 864h96v96h-96v-96z"/></mask><path d="M948 960v1h1v-1h-1zm-1-96v96h2v-96h-2zm1 95h-96v2h96v-2z" fill="#F4D0DC" mask="url(#cb)"/><mask id="cc" fill="#fff"><path d="M948 864h96v96h-96v-96z"/></mask><path d="M1044 960v1h1v-1h-1zm-1-96v96h2v-96h-2zm1 95h-96v2h96v-2z" fill="#F4D0DC" mask="url(#cc)"/><mask id="cd" fill="#fff"><path d="M1044 864h96v96h-96v-96z"/></mask><path d="M1140 960v1h1v-1h-1zm-1-96v96h2v-96h-2zm1 95h-96v2h96v-2z" fill="#F4D0DC" mask="url(#cd)"/><mask id="ce" fill="#fff"><path d="M1140 864h96v96h-96v-96z"/></mask><path d="M1236 960v1h1v-1h-1zm-1-96v96h2v-96h-2zm1 95h-96v2h96v-2z" fill="#F4D0DC" mask="url(#ce)"/><mask id="cf" fill="#fff"><path d="M1236 864h96v96h-96v-96z"/></mask><path d="M1332 960v1h1v-1h-1zm-1-96v96h2v-96h-2zm1 95h-96v2h96v-2z" fill="#F4D0DC" mask="url(#cf)"/><mask id="cg" fill="#fff"><path d="M1332 864h96v96h-96v-96z"/></mask><path d="M1428 960v1h1v-1h-1zm-1-96v96h2v-96h-2zm1 95h-96v2h96v-2z" fill="#F4D0DC" mask="url(#cg)"/><mask id="ch" fill="#fff"><path d="M1428 864h96v96h-96v-96z"/></mask><path d="M1428 864h96v96h-96v-96z" fill="#F4D0DC"/><path d="M1524 960v1h1v-1h-1zm-1-96v96h2v-96h-2zm1 95h-96v2h96v-2z" fill="#F4D0DC" mask="url(#ch)"/><mask id="ci" fill="#fff"><path d="M-12 960h96v96h-96v-96z"/></mask><path d="M84 1056v1h1v-1h-1zm-1-96v96h2v-96h-2zm1 95h-96v2h96v-2z" fill="#F4D0DC" mask="url(#ci)"/><mask id="cj" fill="#fff"><path d="M84 960h96v96H84v-96z"/></mask><path d="M180 1056v1h1v-1h-1zm-1-96v96h2v-96h-2zm1 95H84v2h96v-2z" fill="#F4D0DC" mask="url(#cj)"/><mask id="ck" fill="#fff"><path d="M180 960h96v96h-96v-96z"/></mask><path d="M276 1056v1h1v-1h-1zm-1-96v96h2v-96h-2zm1 95h-96v2h96v-2z" fill="#F4D0DC" mask="url(#ck)"/><mask id="cl" fill="#fff"><path d="M276 960h96v96h-96v-96z"/></mask><path d="M372 1056v1h1v-1h-1zm-1-96v96h2v-96h-2zm1 95h-96v2h96v-2z" fill="#F4D0DC" mask="url(#cl)"/><mask id="cm" fill="#fff"><path d="M372 960h96v96h-96v-96z"/></mask><path d="M372 960h96v96h-96v-96z" fill="#F4D0DC"/><path d="M468 1056v1h1v-1h-1zm-1-96v96h2v-96h-2zm1 95h-96v2h96v-2z" fill="#F4D0DC" mask="url(#cm)"/><mask id="cn" fill="#fff"><path d="M468 960h96v96h-96v-96z"/></mask><path d="M564 1056v1h1v-1h-1zm-1-96v96h2v-96h-2zm1 95h-96v2h96v-2z" fill="#F4D0DC" mask="url(#cn)"/><mask id="co" fill="#fff"><path d="M564 960h96v96h-96v-96z"/></mask><path d="M660 1056v1h1v-1h-1zm-1-96v96h2v-96h-2zm1 95h-96v2h96v-2z" fill="#F4D0DC" mask="url(#co)"/><mask id="cp" fill="#fff"><path d="M660 960h96v96h-96v-96z"/></mask><path d="M756 1056v1h1v-1h-1zm-1-96v96h2v-96h-2zm1 95h-96v2h96v-2z" fill="#F4D0DC" mask="url(#cp)"/><mask id="cq" fill="#fff"><path d="M756 960h96v96h-96v-96z"/></mask><path d="M756 960h96v96h-96v-96z" fill="#F4D0DC"/><path d="M852 1056v1h1v-1h-1zm-1-96v96h2v-96h-2zm1 95h-96v2h96v-2z" fill="#F4D0DC" mask="url(#cq)"/><mask id="cr" fill="#fff"><path d="M852 960h96v96h-96v-96z"/></mask><path d="M948 1056v1h1v-1h-1zm-1-96v96h2v-96h-2zm1 95h-96v2h96v-2z" fill="#F4D0DC" mask="url(#cr)"/><mask id="cs" fill="#fff"><path d="M948 960h96v96h-96v-96z"/></mask><path d="M1044 1056v1h1v-1h-1zm-1-96v96h2v-96h-2zm1 95h-96v2h96v-2z" fill="#F4D0DC" mask="url(#cs)"/><mask id="ct" fill="#fff"><path d="M1044 960h96v96h-96v-96z"/></mask><path d="M1140 1056v1h1v-1h-1zm-1-96v96h2v-96h-2zm1 95h-96v2h96v-2z" fill="#F4D0DC" mask="url(#ct)"/><mask id="cu" fill="#fff"><path d="M1140 960h96v96h-96v-96z"/></mask><path d="M1236 1056v1h1v-1h-1zm-1-96v96h2v-96h-2zm1 95h-96v2h96v-2z" fill="#F4D0DC" mask="url(#cu)"/><mask id="cv" fill="#fff"><path d="M1236 960h96v96h-96v-96z"/></mask><path d="M1332 1056v1h1v-1h-1zm-1-96v96h2v-96h-2zm1 95h-96v2h96v-2z" fill="#F4D0DC" mask="url(#cv)"/><mask id="cw" fill="#fff"><path d="M1332 960h96v96h-96v-96z"/></mask><path d="M1428 1056v1h1v-1h-1zm-1-96v96h2v-96h-2zm1 95h-96v2h96v-2z" fill="#F4D0DC" mask="url(#cw)"/><mask id="cx" fill="#fff"><path d="M1428 960h96v96h-96v-96z"/></mask><path d="M1524 1056v1h1v-1h-1zm-1-96v96h2v-96h-2zm1 95h-96v2h96v-2z" fill="#F4D0DC" mask="url(#cx)"/><g opacity=".5"><mask id="cy" fill="#fff"><path d="M-12 1056h96v96h-96v-96z"/></mask><path d="M-12 1056h96v96h-96v-96z" fill="#F4D0DC"/><path d="M84 1152v1h1v-1h-1zm-1-96v96h2v-96h-2zm1 95h-96v2h96v-2z" fill="#F4D0DC" mask="url(#cy)"/><mask id="cz" fill="#fff"><path d="M84 1056h96v96H84v-96z"/></mask><path d="M180 1152v1h1v-1h-1zm-1-96v96h2v-96h-2zm1 95H84v2h96v-2z" fill="#F4D0DC" mask="url(#cz)"/><mask id="cA" fill="#fff"><path d="M180 1056h96v96h-96v-96z"/></mask><path d="M276 1152v1h1v-1h-1zm-1-96v96h2v-96h-2zm1 95h-96v2h96v-2z" fill="#F4D0DC" mask="url(#cA)"/><mask id="cB" fill="#fff"><path d="M276 1056h96v96h-96v-96z"/></mask><path d="M372 1152v1h1v-1h-1zm-1-96v96h2v-96h-2zm1 95h-96v2h96v-2z" fill="#F4D0DC" mask="url(#cB)"/><mask id="cC" fill="#fff"><path d="M372 1056h96v96h-96v-96z"/></mask><path d="M468 1152v1h1v-1h-1zm-1-96v96h2v-96h-2zm1 95h-96v2h96v-2z" fill="#F4D0DC" mask="url(#cC)"/><mask id="cD" fill="#fff"><path d="M468 1056h96v96h-96v-96z"/></mask><path d="M564 1152v1h1v-1h-1zm-1-96v96h2v-96h-2zm1 95h-96v2h96v-2z" fill="#F4D0DC" mask="url(#cD)"/><mask id="cE" fill="#fff"><path d="M564 1056h96v96h-96v-96z"/></mask><path d="M660 1152v1h1v-1h-1zm-1-96v96h2v-96h-2zm1 95h-96v2h96v-2z" fill="#F4D0DC" mask="url(#cE)"/><mask id="cF" fill="#fff"><path d="M660 1056h96v96h-96v-96z"/></mask><path d="M756 1152v1h1v-1h-1zm-1-96v96h2v-96h-2zm1 95h-96v2h96v-2z" fill="#F4D0DC" mask="url(#cF)"/><mask id="cG" fill="#fff"><path d="M756 1056h96v96h-96v-96z"/></mask><path d="M852 1152v1h1v-1h-1zm-1-96v96h2v-96h-2zm1 95h-96v2h96v-2z" fill="#F4D0DC" mask="url(#cG)"/><mask id="cH" fill="#fff"><path d="M852 1056h96v96h-96v-96z"/></mask><path d="M948 1152v1h1v-1h-1zm-1-96v96h2v-96h-2zm1 95h-96v2h96v-2z" fill="#F4D0DC" mask="url(#cH)"/><mask id="cI" fill="#fff"><path d="M948 1056h96v96h-96v-96z"/></mask><path d="M1044 1152v1h1v-1h-1zm-1-96v96h2v-96h-2zm1 95h-96v2h96v-2z" fill="#F4D0DC" mask="url(#cI)"/><mask id="cJ" fill="#fff"><path d="M1044 1056h96v96h-96v-96z"/></mask><path d="M1140 1152v1h1v-1h-1zm-1-96v96h2v-96h-2zm1 95h-96v2h96v-2z" fill="#F4D0DC" mask="url(#cJ)"/><mask id="cK" fill="#fff"><path d="M1140 1056h96v96h-96v-96z"/></mask><path d="M1140 1056h96v96h-96v-96z" fill="#F4D0DC"/><path d="M1236 1152v1h1v-1h-1zm-1-96v96h2v-96h-2zm1 95h-96v2h96v-2z" fill="#F4D0DC" mask="url(#cK)"/><mask id="cL" fill="#fff"><path d="M1236 1056h96v96h-96v-96z"/></mask><path d="M1332 1152v1h1v-1h-1zm-1-96v96h2v-96h-2zm1 95h-96v2h96v-2z" fill="#F4D0DC" mask="url(#cL)"/><mask id="cM" fill="#fff"><path d="M1332 1056h96v96h-96v-96z"/></mask><path d="M1428 1152v1h1v-1h-1zm-1-96v96h2v-96h-2zm1 95h-96v2h96v-2z" fill="#F4D0DC" mask="url(#cM)"/><mask id="cN" fill="#fff"><path d="M1428 1056h96v96h-96v-96z"/></mask><path d="M1524 1152v1h1v-1h-1zm-1-96v96h2v-96h-2zm1 95h-96v2h96v-2z" fill="#F4D0DC" mask="url(#cN)"/></g></g><path stroke="#F4D0DC" d="M-203.5.5h1919v1151h-1919z"/></g></g><defs><clipPath id="a"><path fill="#fff" d="M0 0h1512v1440H0z"/></clipPath><clipPath id="d"><path fill="#fff" d="M-204 0h1920v1152H-204z"/></clipPath><radialGradient id="b" cx="0" cy="0" r="1" gradientUnits="userSpaceOnUse" gradientTransform="matrix(0 1446.7 -789.167 0 756 0)"><stop/><stop offset=".953" stop-opacity="0"/></radialGradient></defs></svg>