<svg width="80" height="80" viewBox="0 0 80 80" fill="none" xmlns="http://www.w3.org/2000/svg">
<g clip-path="url(#clip0_191_869)">
<path d="M0 32.1072V0.0067749H32.0653V3.08326C31.8289 3.08326 31.6037 3.08326 31.3785 3.08326C22.2649 3.08326 13.1513 3.08326 4.03772 3.08326C3.92963 3.08326 3.82153 3.09453 3.71795 3.08326C3.24729 3.02246 3.07389 3.18236 3.08065 3.69361C3.10992 6.04715 3.09191 8.40294 3.09191 10.7565C3.09191 17.6594 3.0874 24.5624 3.10317 31.4654C3.10317 31.9721 2.98381 32.15 2.45911 32.1207C1.65968 32.0757 0.855735 32.1095 0 32.1095L0 32.1072Z" fill="white"/>
<path d="M80.0001 0V32.0667H76.9308V3.10577H47.9438V0H80.0001Z" fill="white"/>
<path d="M0.0180664 47.9221H3.0807V76.8942H32.0766V79.982H0.0180664V47.9221Z" fill="white"/>
<path d="M79.9886 80H47.9346V76.9325H76.908V47.9243H79.9886V80Z" fill="white"/>
<path d="M65.8558 32.1027C65.3852 32.1027 64.937 32.1432 64.5024 32.0847C64.3088 32.0599 64.1106 31.8639 63.9687 31.7018C60.9556 28.2492 57.9515 24.7921 54.943 21.335C54.8169 21.1908 54.6817 21.0534 54.4678 20.826V32.0621H51.3691V14.2293C51.842 14.2293 52.3014 14.2068 52.7541 14.2428C52.8982 14.2541 53.0513 14.4072 53.1594 14.5333C56.2401 18.067 59.3185 21.6052 62.3924 25.1434C62.4847 25.2493 62.5523 25.3754 62.6311 25.4902C62.6806 25.4655 62.7302 25.4407 62.7797 25.4137V14.2541H65.8558V32.1027Z" fill="white"/>
<path d="M25.2894 51.0211H17.2545V55.0593H24.7759V58.165C24.6115 58.1763 24.4584 58.1921 24.303 58.1943C22.1276 58.1966 19.95 58.2101 17.7747 58.1898C17.3198 58.1853 17.2004 58.3317 17.2117 58.7664C17.2387 59.8722 17.2184 60.978 17.2207 62.0838C17.2207 62.2415 17.2387 62.3969 17.2545 62.6289H25.2984V65.7324H14.1445V47.9491H25.2894V51.0233V51.0211Z" fill="white"/>
<path d="M51.628 47.8951C52.5378 47.8951 53.4431 47.877 54.3461 47.9131C54.5082 47.9198 54.6951 48.1293 54.8122 48.2892C55.9832 49.904 57.1407 51.5301 58.305 53.1517C58.3883 53.2665 58.4784 53.3769 58.6022 53.5368C58.7171 53.3994 58.8207 53.289 58.9085 53.1652C60.0728 51.5436 61.2415 49.9243 62.3922 48.2937C62.5972 48.0009 62.8179 47.8725 63.1827 47.8838C63.9821 47.9108 64.7815 47.8928 65.617 47.8928C65.6711 48.5369 65.7229 49.0842 65.3085 49.6428C63.8087 51.6585 62.3742 53.7215 60.888 55.7484C60.6132 56.1246 60.5952 56.3768 60.8767 56.7619C62.5792 59.0929 64.2276 61.4645 65.9548 63.7775C66.4187 64.3991 66.5178 65.0049 66.4142 65.7774C65.4909 65.7774 64.5699 65.7932 63.6511 65.7594C63.5092 65.7549 63.3516 65.5387 63.2435 65.3878C61.8766 63.4937 60.5186 61.5951 59.1585 59.6988C58.9941 59.4713 58.8274 59.2461 58.6158 58.9556C57.8096 60.0771 57.0439 61.1402 56.2805 62.2032C55.4901 63.3023 54.7041 64.4059 53.907 65.5004C53.8214 65.6175 53.6728 65.7639 53.5511 65.7662C52.6459 65.7887 51.7406 65.7774 50.8195 65.7774C50.7272 65.0612 50.761 64.4734 51.2024 63.8766C52.9611 61.4983 54.6614 59.0772 56.3998 56.6831C56.625 56.3723 56.6453 56.1741 56.4111 55.852C54.9609 53.8656 53.5602 51.8431 52.0896 49.8725C51.6483 49.2802 51.4771 48.6946 51.6302 47.8928L51.628 47.8951Z" fill="white"/>
<path d="M15.453 28.9857H18.1711V17.3914H15.4913V14.2609H24.1072C24.1072 15.2293 24.1162 16.1865 24.0892 17.1437C24.0869 17.2247 23.8415 17.3644 23.7063 17.3666C22.9429 17.3892 22.1795 17.3779 21.3801 17.3779V28.9564H24.0689V32.0667C23.9023 32.0802 23.7469 32.105 23.5937 32.105C21.0603 32.105 18.5291 32.0982 15.9957 32.1117C15.5904 32.114 15.4237 32.0171 15.4417 31.5802C15.4733 30.7446 15.4507 29.9068 15.4507 28.9834L15.453 28.9857Z" fill="white"/>
</g>
<defs>
<clipPath id="clip0_191_869">
<rect width="80" height="80" fill="white"/>
</clipPath>
</defs>
</svg>
