<?xml version="1.0" encoding="UTF-8"?>
<svg id="Layer_2" data-name="Layer 2" xmlns="http://www.w3.org/2000/svg" viewBox="0 0 81.9 106.81">
  <defs>
    <style>
      .cls-1 {
        fill: #beefda;
      }

      .cls-1, .cls-2 {
        stroke-width: 0px;
      }

      .cls-2 {
        fill: #024234;
      }
    </style>
  </defs>
  <g id="Layer_1-2" data-name="Layer 1">
    <g>
      <path class="cls-1" d="M69.86,71.88c-.59-11.09-1.3-24.42-1.18-34.34h-.35c-2.71,9.32-6.02,19.23-10.03,30.21l-14.04,38.58h-7.79l-12.86-37.88c-3.78-11.21-6.96-21.47-9.2-30.91h-.24c-.24,9.91-.83,23.24-1.53,35.16l-2.12,34.1H.72L6.27,27.28h13.1l13.57,38.47c3.3,9.79,6.02,18.52,8.02,26.78h.35c2.01-8.02,4.84-16.75,8.38-26.78l14.16-38.47h13.1l4.96,79.53h-10.03l-2.01-34.93Z"/>
      <rect class="cls-2" width="81.9" height="13.47"/>
    </g>
  </g>
</svg>