<svg data-name="Layer 2" xmlns="http://www.w3.org/2000/svg" viewBox="0 0 81.9 106.81"><g data-name="Layer 1"><path d="M69.86 71.88c-.59-11.09-1.3-24.42-1.18-34.34h-.35c-2.71 9.32-6.02 19.23-10.03 30.21l-14.04 38.58h-7.79L23.61 68.45c-3.78-11.21-6.96-21.47-9.2-30.91h-.24c-.24 9.91-.83 23.24-1.53 35.16l-2.12 34.1H.72l5.55-79.52h13.1l13.57 38.47c3.3 9.79 6.02 18.52 8.02 26.78h.35c2.01-8.02 4.84-16.75 8.38-26.78l14.16-38.47h13.1l4.96 79.53H71.88l-2.01-34.93z" style="stroke-width:0;fill:#beefda"/><path style="fill:#024234;stroke-width:0" d="M0 0h81.9v13.47H0z"/></g></svg>