<svg width="74" height="80" viewBox="0 0 74 80" fill="none" xmlns="http://www.w3.org/2000/svg">
<g clip-path="url(#clip0_191_817)">
<path d="M0.963379 60.1435C0.963379 59.7802 1.25223 59.4802 1.62489 59.4802H1.76415C2.053 59.4802 2.24514 59.6302 2.3728 59.8332L4.63715 63.3891L6.91181 59.8215C7.05108 59.5966 7.24321 59.4789 7.51014 59.4789H7.6494C8.02336 59.4789 8.3122 59.7789 8.3122 60.1422V66.4188C8.3122 66.7835 8.02336 67.0718 7.6494 67.0718C7.29737 67.0718 6.99821 66.7718 6.99821 66.4188V61.9202L5.171 64.6732C5.03173 64.8865 4.86152 65.0158 4.61652 65.0158C4.37151 65.0158 4.21032 64.8878 4.07106 64.6732L2.25545 61.9409V66.4292C2.25545 66.7938 1.96789 67.0718 1.60426 67.0718C1.24062 67.0718 0.963379 66.7938 0.963379 66.4292V60.1422V60.1435Z" fill="white"/>
<path d="M15.2212 66.9231L14.4411 66.1305C13.8118 66.7408 13.0536 67.1262 12.1342 67.1262C10.7351 67.1262 9.68799 66.2805 9.68799 64.9835V64.9628C9.68799 63.9982 10.2541 63.3025 11.2792 62.8629C10.8511 62.3159 10.659 61.8452 10.659 61.2996V61.2776C10.659 60.2716 11.4714 59.3923 12.806 59.3923C13.9923 59.3923 14.7931 60.1953 14.7931 61.2026V61.2246C14.7931 62.2099 14.1419 62.7982 13.1593 63.1732L14.4307 64.4689C14.6551 64.1469 14.8576 63.7836 15.051 63.3969C15.1039 63.2793 15.2754 63.0866 15.5423 63.0866C15.8518 63.0866 16.1084 63.3439 16.1084 63.6439C16.1084 63.7409 16.0761 63.8469 16.0336 63.9336C15.7873 64.3939 15.5101 64.8439 15.2212 65.2512L16.0542 66.0865C16.1819 66.2158 16.2567 66.3438 16.2567 66.5365C16.2567 66.8688 16.0104 67.1262 15.6803 67.1262C15.4881 67.1262 15.3592 67.0615 15.2212 66.9231ZM13.6828 65.3702L12.0168 63.6672C11.3115 63.9775 11.0123 64.4379 11.0123 64.9202V64.9409C11.0123 65.5732 11.5358 66.0335 12.2618 66.0335C12.7854 66.0335 13.2547 65.7775 13.6828 65.3702ZM13.63 61.2996V61.2776C13.63 60.7746 13.2767 60.4319 12.7866 60.4319C12.2515 60.4319 11.8892 60.8069 11.8892 61.3319V61.3539C11.8892 61.7289 12.0387 62.0069 12.4552 62.4672C13.2238 62.1892 13.63 61.8452 13.63 61.2996Z" fill="white"/>
<path d="M17.7407 60.1216C17.7407 59.7569 18.0296 59.4686 18.4035 59.4686C18.7775 59.4686 19.0547 59.7582 19.0547 60.1216V66.4201C19.0547 66.7848 18.7659 67.0731 18.4035 67.0731C18.0412 67.0731 17.7407 66.7835 17.7407 66.4201V60.1216Z" fill="white"/>
<path d="M24.0633 66.1848C23.9137 66.0775 23.8066 65.8951 23.8066 65.6818C23.8066 65.3391 24.0852 65.0715 24.4269 65.0715C24.6087 65.0715 24.7261 65.1258 24.8112 65.1891C25.4314 65.6818 26.0929 65.9598 26.9053 65.9598C27.7177 65.9598 28.2296 65.5745 28.2296 65.0171V64.9952C28.2296 64.4598 27.9304 64.1702 26.5417 63.8495C24.9504 63.4642 24.0529 62.9922 24.0529 61.6112V61.5892C24.0529 60.3039 25.1206 59.4142 26.6061 59.4142C27.5462 59.4142 28.3044 59.6612 28.9775 60.1112C29.1271 60.1966 29.2664 60.3789 29.2664 60.6362C29.2664 60.9789 28.9878 61.2465 28.6461 61.2465C28.5185 61.2465 28.4114 61.2142 28.3044 61.1508C27.728 60.7759 27.1722 60.5832 26.5842 60.5832C25.8157 60.5832 25.3669 60.9789 25.3669 61.4715V61.4935C25.3669 62.0715 25.7086 62.3288 27.1503 62.6715C28.7312 63.0568 29.5423 63.6245 29.5423 64.8671V64.8878C29.5423 66.2908 28.4424 67.1261 26.8718 67.1261C25.8569 67.1261 24.895 66.8042 24.062 66.1835" fill="white"/>
<path d="M32.949 64.1068L30.3752 60.5612C30.2901 60.4332 30.2256 60.2832 30.2256 60.1009C30.2256 59.7466 30.5131 59.4685 30.8871 59.4685C31.1759 59.4685 31.3681 59.6289 31.528 59.8642L33.6105 62.8745L35.7253 59.8539C35.8865 59.6185 36.0773 59.4569 36.3558 59.4569C36.7401 59.4569 36.9967 59.7466 36.9967 60.0996C36.9967 60.2819 36.9116 60.4422 36.8149 60.5702L34.2617 64.0732V66.4188C34.2617 66.7835 33.9729 67.0718 33.6002 67.0718C33.2275 67.0718 32.949 66.7835 32.949 66.4188V64.1055V64.1068Z" fill="white"/>
<path d="M37.8299 66.1848C37.6803 66.0775 37.5732 65.8951 37.5732 65.6818C37.5732 65.3391 37.8518 65.0715 38.1935 65.0715C38.3753 65.0715 38.4927 65.1258 38.5778 65.1891C39.198 65.6818 39.8595 65.9598 40.6706 65.9598C41.4817 65.9598 41.9949 65.5745 41.9949 65.0171V64.9952C41.9949 64.4598 41.6958 64.1702 40.307 63.8495C38.7157 63.4642 37.8182 62.9922 37.8182 61.6112V61.5892C37.8182 60.3039 38.8859 59.4142 40.3714 59.4142C41.3115 59.4142 42.0697 59.6612 42.7428 60.1112C42.8924 60.1966 43.0317 60.3789 43.0317 60.6362C43.0317 60.9789 42.7531 61.2465 42.4114 61.2465C42.2838 61.2465 42.1767 61.2142 42.0697 61.1508C41.4933 60.7759 40.9375 60.5832 40.3508 60.5832C39.5823 60.5832 39.1335 60.9789 39.1335 61.4715V61.4935C39.1335 62.0715 39.4752 62.3288 40.9169 62.6715C42.4978 63.0568 43.3089 63.6245 43.3089 64.8671V64.8878C43.3089 66.2908 42.209 67.1261 40.6384 67.1261C39.6235 67.1261 38.6629 66.8042 37.8299 66.1835" fill="white"/>
<path d="M46.5444 60.7435H44.7288C44.387 60.7435 44.1201 60.4655 44.1201 60.1332C44.1201 59.8009 44.387 59.5215 44.7288 59.5215H49.6959C50.0273 59.5215 50.2942 59.7996 50.2942 60.1332C50.2942 60.4668 50.0273 60.7435 49.6959 60.7435H47.8687V66.4201C47.8687 66.7847 47.5695 67.0731 47.2059 67.0731C46.8422 67.0731 46.5444 66.7835 46.5444 66.4201V60.7435Z" fill="white"/>
<path d="M51.6274 66.3554V60.1862C51.6274 59.8112 51.9163 59.5215 52.289 59.5215H56.6371C56.9582 59.5215 57.2238 59.7892 57.2238 60.1112C57.2238 60.4332 56.9569 60.7008 56.6371 60.7008H52.9414V62.6495H56.1561C56.4772 62.6495 56.7429 62.9172 56.7429 63.2495C56.7429 63.5818 56.4759 63.8275 56.1561 63.8275H52.9414V65.8421H56.69C57.0111 65.8421 57.278 66.1098 57.278 66.4304C57.278 66.7511 57.0111 67.0188 56.69 67.0188H52.289C51.915 67.0188 51.6274 66.7304 51.6274 66.3554Z" fill="white"/>
<path d="M58.7842 60.1435C58.7842 59.7802 59.073 59.4802 59.4457 59.4802H59.585C59.8738 59.4802 60.0659 59.6302 60.1936 59.8332L62.4579 63.3891L64.7339 59.8215C64.8732 59.5966 65.0653 59.4789 65.3322 59.4789H65.4702C65.8442 59.4789 66.133 59.7789 66.133 60.1422V66.4188C66.133 66.7835 65.8442 67.0718 65.4702 67.0718C65.1182 67.0718 64.819 66.7718 64.819 66.4188V61.9202L62.9931 64.6732C62.8538 64.8865 62.6836 65.0158 62.4373 65.0158C62.191 65.0158 62.0311 64.8878 61.8919 64.6732L60.0763 61.9409V66.4292C60.0763 66.7938 59.7887 67.0718 59.4251 67.0718C59.0614 67.0718 58.7842 66.7938 58.7842 66.4292V60.1422V60.1435Z" fill="white"/>
<path d="M67.8611 66.1848C67.7115 66.0775 67.6045 65.8951 67.6045 65.6818C67.6045 65.3391 67.883 65.0715 68.2247 65.0715C68.4066 65.0715 68.5239 65.1258 68.609 65.1891C69.2293 65.6818 69.8908 65.9598 70.7031 65.9598C71.5155 65.9598 72.0275 65.5745 72.0275 65.0171V64.9952C72.0275 64.4598 71.7283 64.1702 70.3395 63.8495C68.7483 63.4642 67.8508 62.9922 67.8508 61.6112V61.5892C67.8508 60.3039 68.9185 59.4142 70.4027 59.4142C71.3427 59.4142 72.101 59.6612 72.7741 60.1112C72.9237 60.1966 73.0629 60.3789 73.0629 60.6362C73.0629 60.9789 72.7844 61.2465 72.4427 61.2465C72.3137 61.2465 72.208 61.2142 72.101 61.1508C71.5246 60.7759 70.9688 60.5832 70.3821 60.5832C69.6122 60.5832 69.1648 60.9789 69.1648 61.4715V61.4935C69.1648 62.0715 69.5065 62.3288 70.9481 62.6715C72.5291 63.0568 73.3402 63.6245 73.3402 64.8671V64.8878C73.3402 66.2908 72.2402 67.1261 70.6696 67.1261C69.6548 67.1261 68.6928 66.8042 67.8598 66.1835" fill="white"/>
<path d="M0.631836 76.1441V76.1221C0.631836 74.0222 2.23468 72.2455 4.48742 72.2455C5.60928 72.2455 6.35719 72.5132 7.04062 73.0058C7.16828 73.1015 7.30755 73.2838 7.30755 73.5411C7.30755 73.8954 7.0187 74.1941 6.65635 74.1941C6.48485 74.1941 6.35719 74.1191 6.25016 74.0441C5.76918 73.6911 5.24565 73.4545 4.43455 73.4545C3.05608 73.4545 2.0103 74.6648 2.0103 76.1001V76.1208C2.0103 77.6635 3.02514 78.7988 4.55319 78.7988C5.25854 78.7988 5.89942 78.5738 6.35848 78.2311V76.8281H4.88459C4.5635 76.8281 4.29658 76.5812 4.29658 76.2605C4.29658 75.9398 4.5635 75.6825 4.88459 75.6825H6.96712C7.34107 75.6825 7.62863 75.9721 7.62863 76.3471V78.3501C7.62863 78.7251 7.47905 78.9927 7.16957 79.1854C6.52869 79.6134 5.6312 79.9988 4.50934 79.9988C2.1702 79.9988 0.631836 78.3281 0.631836 76.1428" fill="white"/>
<path d="M9.33594 73.0381C9.33594 72.6631 9.62478 72.3748 9.99874 72.3748H12.6693C13.6093 72.3748 14.3456 72.6528 14.8266 73.1247C15.2225 73.5308 15.4456 74.0894 15.4456 74.7424V74.7644C15.4456 75.9643 14.7518 76.6923 13.7473 77.0027L15.1786 78.813C15.3063 78.9733 15.3927 79.113 15.3927 79.316C15.3927 79.6806 15.0832 79.9263 14.7621 79.9263C14.463 79.9263 14.2708 79.7867 14.1212 79.5837L12.3056 77.2587H10.6499V79.272C10.6499 79.6367 10.3624 79.925 9.99874 79.925C9.6351 79.925 9.33594 79.6367 9.33594 79.272V73.0381ZM12.5726 76.0898C13.5126 76.0898 14.1109 75.5971 14.1109 74.8368V74.8148C14.1109 74.0118 13.5345 73.5721 12.5623 73.5721H10.6499V76.0885H12.5726V76.0898Z" fill="white"/>
<path d="M16.7259 76.1441V76.1221C16.7259 74.0118 18.3494 72.2455 20.646 72.2455C22.9425 72.2455 24.5441 73.9911 24.5441 76.1014V76.1221C24.5441 78.2324 22.9206 79.9988 20.624 79.9988C18.3275 79.9988 16.7246 78.2531 16.7246 76.1428M23.1669 76.1441V76.1221C23.1669 74.6661 22.1095 73.4545 20.6253 73.4545C19.1411 73.4545 18.1044 74.6441 18.1044 76.1001V76.1208C18.1044 77.5781 19.1618 78.7768 20.646 78.7768C22.1302 78.7768 23.1669 77.5988 23.1669 76.1415" fill="white"/>
<path d="M26.0169 76.6897V72.9734C26.0169 72.6088 26.3058 72.3204 26.6797 72.3204C27.0537 72.3204 27.3309 72.6088 27.3309 72.9734V76.6367C27.3309 78.0294 28.0466 78.7677 29.2213 78.7677C30.396 78.7677 31.1014 78.0707 31.1014 76.6897V72.9734C31.1014 72.6088 31.3889 72.3204 31.7629 72.3204C32.1369 72.3204 32.4141 72.6088 32.4141 72.9734V76.6264C32.4141 78.8647 31.153 79.9897 29.1994 79.9897C27.2458 79.9897 26.0156 78.866 26.0156 76.691" fill="white"/>
<path d="M34.2192 73.0381C34.2192 72.6631 34.5068 72.3748 34.8807 72.3748H37.167C38.9182 72.3748 40.0078 73.3704 40.0078 74.8807V74.9027C40.0078 76.5837 38.6615 77.463 37.0174 77.463H35.5319V79.2733C35.5319 79.638 35.2431 79.9263 34.8807 79.9263C34.5184 79.9263 34.2192 79.638 34.2192 79.2733V73.0394V73.0381ZM37.0613 76.2721C38.0542 76.2721 38.6744 75.7148 38.6744 74.9325V74.9105C38.6744 74.0325 38.0439 73.5721 37.0613 73.5721H35.5332V76.2708H37.0613V76.2721Z" fill="white"/>
<path d="M60.5482 26.5688V41.703C60.5482 45.4025 63.5385 48.3998 67.2265 48.3998C70.9144 48.3998 73.9048 45.4012 73.9048 41.703V26.5688C73.9048 22.8693 70.9144 19.872 67.2265 19.872C63.5385 19.872 60.5482 22.8693 60.5482 26.5688ZM0 6.69684V41.7017C0 45.4012 2.99034 48.3985 6.67829 48.3985C10.3662 48.3985 13.3566 45.3999 13.3566 41.7017V6.69684C13.3579 2.99864 10.3675 0 6.67829 0C2.98905 0 0 2.99864 0 6.69684ZM20.2567 6.69684V27.0085C20.2567 30.708 23.247 33.7066 26.9349 33.7066C30.6229 33.7066 33.6132 30.708 33.6132 27.0085V6.69684C33.6132 2.99864 30.6229 0 26.9349 0C23.247 0 20.2567 2.99864 20.2567 6.69684ZM40.4024 6.69684V41.7017C40.4024 45.4012 43.3928 48.3985 47.0807 48.3985C50.7687 48.3985 53.759 45.3999 53.759 41.7017V6.69684C53.759 2.99864 50.7687 0 47.0807 0C43.3928 0 40.4024 2.99864 40.4024 6.69684ZM60.5482 6.69684C60.5482 10.395 63.5385 13.3937 67.2265 13.3937C70.9144 13.3937 73.9048 10.395 73.9048 6.69684C73.9048 2.99864 70.9157 0 67.2265 0C63.5372 0 60.5482 2.99864 60.5482 6.69684Z" fill="white"/>
</g>
<defs>
<clipPath id="clip0_191_817">
<rect width="73.9048" height="80" fill="white"/>
</clipPath>
</defs>
</svg>
