<svg width="157" height="30" viewBox="0 0 157 30" fill="none" xmlns="http://www.w3.org/2000/svg">
<g clip-path="url(#clip0_193_816)">
<path d="M79.75 22.67C79.94 21.81 81.17 16.67 82.43 11C83.51 6.1 84.26 3 84.53 0.75L84.75 0.55L87.87 0L88.02 0.2L87.22 3.37L85.9 8.88C87.1448 8.06659 88.5933 7.61958 90.08 7.59C92.91 7.59 95.29 9.51 95.29 13.12C95.2562 15.4665 94.4158 17.73 92.91 19.53C90.33 22.47 87.16 22.67 83.47 22.82H81.89H79.89L79.75 22.67ZM83.24 20.58C85.2743 20.8003 87.326 20.3697 89.1 19.35C90.0321 18.6823 90.7982 17.8094 91.3392 16.7985C91.8802 15.7876 92.1815 14.6659 92.22 13.52C92.22 10.91 90.65 9.91 88.82 9.91C87.5891 9.96118 86.4017 10.3791 85.41 11.11C85.41 11.11 83.41 19.88 83.24 20.58Z" fill="white"/>
<path d="M110.63 13.72C109.63 18.12 109.43 19.21 108.86 22.62L108.65 22.82L105.97 22.87L105.82 22.67L106.02 21.53C104.862 22.5292 103.369 23.0542 101.84 23C98.9203 23 96.5503 20.94 96.5503 17.36C96.6299 15.1166 97.4332 12.9591 98.8403 11.21C101.5 8.08998 105.19 7.91998 107.84 7.91998H111.78L111.93 8.13998L110.63 13.72ZM108.51 10.08H107.22C105.637 10.0207 104.073 10.4388 102.73 11.28C101.813 11.9729 101.061 12.8625 100.532 13.8833C100.002 14.9042 99.708 16.0306 99.6703 17.18C99.6401 17.6354 99.7039 18.0922 99.8577 18.522C100.012 18.9517 100.252 19.3453 100.564 19.6782C100.877 20.0111 101.254 20.2763 101.673 20.4572C102.092 20.6381 102.544 20.731 103 20.73C104.282 20.717 105.51 20.2123 106.43 19.32L108.51 10.08Z" fill="white"/>
<path d="M155 13.72C154 18.12 153.8 19.21 153.23 22.62L153.03 22.82L150.34 22.87L150.2 22.67L150.4 21.53C149.242 22.5234 147.755 23.0477 146.23 23C143.31 23 140.93 20.94 140.93 17.36C141.01 15.1166 141.813 12.9591 143.22 11.21C145.88 8.08998 149.58 7.91998 152.22 7.91998H156.17L156.31 8.13998L155 13.72ZM152.89 10.08H151.6C150.014 10.0193 148.446 10.4375 147.1 11.28C146.182 11.9729 145.431 12.8625 144.902 13.8833C144.372 14.9042 144.078 16.0306 144.04 17.18C144.006 17.6395 144.067 18.1013 144.22 18.536C144.373 18.9707 144.614 19.3689 144.929 19.7054C145.244 20.0419 145.625 20.3094 146.049 20.4909C146.473 20.6724 146.929 20.7641 147.39 20.76C148.672 20.747 149.9 20.2423 150.82 19.35L152.89 10.08Z" fill="white"/>
<path d="M124.8 22.65L124.57 22.82L121.65 22.9L121.54 22.7C121.96 20.77 123.72 14.32 123.74 12.31C123.74 10.6 122.68 10.02 121.34 10.02C119.934 10.0781 118.59 10.6144 117.53 11.54C116.47 16.35 116.13 17.87 115.22 22.65L115.01 22.82L112.1 22.9L111.95 22.7C111.95 22.7 112.82 19.2 113.61 15.56C114.22 12.71 114.72 10.36 114.96 8.39003L115.16 8.19003C116.168 8.07018 117.169 7.89997 118.16 7.68003L118.3 7.88003L117.9 9.34003C119.307 8.23145 121.039 7.61651 122.83 7.59003C123.77 7.59003 126.83 7.85003 126.83 11.31C126.89 13.38 125.08 20.62 124.8 22.65Z" fill="white"/>
<path d="M135.74 14.11L140.17 22.55L140 22.78L136.83 22.87L136.6 22.7C135.85 20.7 132.6 14.37 132.6 14.37C131.77 18 131.6 18.86 130.88 22.64L130.68 22.81L127.79 22.87L127.68 22.7C127.68 22.7 129.2 16.35 130.52 10.47C131.14 7.73 132.1 3.38 132.52 0.739998L132.72 0.569998L135.84 0.0599976L136.01 0.259998C135.44 2.26 132.72 13.97 132.72 13.97C134.78 12.17 138.19 8.59 138.65 8.1L138.96 7.93H142.25L142.34 8.19C141.53 8.83 140.02 10.19 139.48 10.67L135.74 14.11Z" fill="white"/>
<path d="M51.2 15.25C49.97 22.25 45.61 23.16 41.91 23.16C38.21 23.16 34.91 20.65 35.85 15.21C36.59 11 39.11 7.00001 45.25 7.33001C49.52 7.54001 52 10.47 51.2 15.25ZM44.52 10.37C43.17 10.37 41.65 11.05 40.77 15.22C39.77 19.86 41.77 20.16 42.69 20.16C43.61 20.16 45.37 19.69 46.28 15.25C46.92 12.14 46.41 10.37 44.52 10.37Z" fill="white"/>
<path d="M60.5203 22.56L60.2903 22.79C59.4394 22.9581 58.5769 23.0617 57.7103 23.1C55.5503 23.1 52.3803 22.78 53.7103 17.33C54.6203 13.64 55.2703 10.88 55.2703 10.88L53.2703 10.94L53.0903 10.71L53.9203 7.82003L54.1203 7.68003H56.0003L56.8503 4.00003L57.0503 3.80003C59.2003 3.31003 59.7703 3.17003 61.7503 2.59003L61.9203 2.76003L60.6603 7.76003L63.5803 7.71003L63.6903 7.91003C63.2903 9.11003 63.1803 9.42003 62.8103 10.77L62.5803 10.97L59.9403 10.91C59.9403 10.91 59.4103 13.13 58.6603 16.23C57.8503 19.57 58.2803 19.4 59.0903 19.72C59.8022 19.8671 60.5426 19.7794 61.2003 19.47L61.3703 19.61L60.5203 22.56Z" fill="white"/>
<path d="M70.87 8.74003C71.9658 7.87467 73.314 7.39019 74.71 7.36003C77.57 7.36003 79.49 9.51003 79.49 13.14C79.4786 15.4281 78.7005 17.6463 77.28 19.44C74.45 22.9 70.87 22.87 67.84 22.87L66.21 29.71L66.01 29.86C65.35 29.86 64.72 29.86 64.01 29.86C63.01 29.86 62.18 29.92 61.12 29.94L60.98 29.74C60.98 29.74 61.98 26.74 63.24 21.5C64.61 16 65.84 9.58003 66 8.28003L66.2 8.08003L71 7.28003L71.18 7.48003L70.87 8.74003ZM68.55 19.74C69.9274 19.8858 71.3069 19.4835 72.39 18.62C73.0813 17.953 73.63 17.1527 74.003 16.2675C74.376 15.3823 74.5655 14.4306 74.56 13.47C74.56 11.07 73.02 10.78 72.45 10.78C71.6942 10.8379 70.9748 11.1278 70.39 11.61L68.55 19.74Z" fill="white"/>
<path fill-rule="evenodd" clip-rule="evenodd" d="M0.000182172 14.14C-0.00113151 12.2844 0.363051 10.4468 1.07194 8.73192C1.78082 7.01709 2.82053 5.45867 4.13169 4.14565C5.44285 2.83263 6.9998 1.79072 8.71363 1.07941C10.4275 0.368096 12.2646 0.00131275 14.1202 0V5.11C12.3402 5.11 10.6001 5.63784 9.12005 6.62677C7.64001 7.61571 6.48646 9.02131 5.80527 10.6658C5.12408 12.3104 4.94585 14.12 5.29311 15.8658C5.64038 17.6116 6.49755 19.2153 7.75622 20.474C9.01489 21.7326 10.6185 22.5898 12.3644 22.9371C14.1102 23.2843 15.9198 23.1061 17.5643 22.4249C19.2089 21.7437 20.6145 20.5902 21.6034 19.1101C22.5923 17.6301 23.1202 15.89 23.1202 14.11H28.2302C28.3468 16.0341 28.0687 17.9618 27.4131 19.7745C26.7575 21.5873 25.7381 23.2468 24.4177 24.6512C23.0972 26.0556 21.5036 27.1752 19.7346 27.9411C17.9657 28.7071 16.0588 29.1033 14.1311 29.1053C12.2034 29.1074 10.2957 28.7152 8.52513 27.953C6.75455 27.1909 5.15852 26.0747 3.83508 24.6731C2.51165 23.2715 1.48877 21.6141 0.829295 19.8028C0.169817 17.9914 -0.112332 16.0644 0.000182172 14.14Z" fill="white"/>
<path d="M7.90039 14.14C7.90039 12.8999 8.26812 11.6877 8.95708 10.6566C9.64603 9.62548 10.6253 8.82184 11.771 8.34727C12.9167 7.87271 14.1773 7.74854 15.3936 7.99047C16.6099 8.2324 17.7271 8.82956 18.604 9.70644C19.4808 10.5833 20.078 11.7005 20.3199 12.9168C20.5618 14.133 20.4377 15.3937 19.9631 16.5394C19.4886 17.6851 18.6849 18.6644 17.6538 19.3533C16.6227 20.0423 15.4105 20.41 14.1704 20.41C12.5075 20.41 10.9127 19.7494 9.73683 18.5736C8.56098 17.3977 7.90039 15.8029 7.90039 14.14Z" fill="white"/>
<path d="M18.52 6.19001C18.52 5.47758 18.7314 4.78116 19.1274 4.18893C19.5235 3.59669 20.0863 3.13528 20.7447 2.8631C21.4031 2.59092 22.1274 2.52022 22.826 2.65994C23.5246 2.79966 24.1661 3.14352 24.6692 3.64799C25.1722 4.15246 25.5143 4.79485 25.6521 5.49384C25.7899 6.19283 25.7171 6.91698 25.4431 7.57462C25.1691 8.23226 24.7061 8.7938 24.1128 9.18817C23.5195 9.58254 22.8225 9.79199 22.11 9.79001C21.6377 9.79002 21.1701 9.69683 20.7339 9.51579C20.2977 9.33475 19.9015 9.06942 19.568 8.735C19.2345 8.40057 18.9703 8.00363 18.7904 7.56692C18.6106 7.13021 18.5187 6.6623 18.52 6.19001Z" fill="white"/>
</g>
<defs>
<clipPath id="clip0_193_816">
<rect width="156.3" height="29.91" fill="white"/>
</clipPath>
</defs>
</svg>
