<svg width="301" height="58" viewBox="0 0 301 58" fill="none" xmlns="http://www.w3.org/2000/svg">
<g clip-path="url(#clip0_207_816)">
<path d="M226.418 9.85181V16.6456H249.713L242.919 9.85181H226.418Z" fill="white"/>
<path d="M266.214 9.85181H249.713V16.6456H266.214V9.85181Z" fill="white"/>
<path d="M249.713 16.6456H242.919V58H249.713V16.6456Z" fill="white"/>
<path d="M179.596 51.1918H154.354V57.9856H179.596V51.1918Z" fill="white"/>
<path d="M147.546 51.1918L154.34 58V9.85181H147.546V51.1918Z" fill="white"/>
<path d="M220.389 51.1918H190.314V57.9856H220.389V51.1918Z" fill="white"/>
<path d="M220.389 9.85181H190.314V16.6456H220.389V9.85181Z" fill="white"/>
<path d="M183.52 58L190.314 51.1918V37.3156H215.556V30.5218H190.314V9.85181L183.52 16.6456V58Z" fill="white"/>
<path d="M143.565 9.85181H113.49V16.6456H143.565V9.85181Z" fill="white"/>
<path d="M113.49 9.85181L106.696 16.6456V42.4651V51.1918V58H113.49V46.4462L143.565 25.3867V16.6456L113.49 37.7051V9.85181Z" fill="white"/>
<path d="M102.715 51.1918H65.8467V58H102.715V51.1918V42.4651L65.8467 16.6456V25.3867L102.715 51.1918Z" fill="white"/>
<path d="M65.8467 16.6456H102.715V9.85181H70.6067L65.8467 16.6456Z" fill="white"/>
<path d="M287.88 24.579C281.1 24.579 275.59 19.0689 275.59 12.2895C275.59 5.51007 281.1 0 287.88 0C294.659 0 300.169 5.51007 300.169 12.2895C300.169 19.0689 294.659 24.579 287.88 24.579ZM287.88 1.28376C281.807 1.28376 276.874 6.21686 276.874 12.2895C276.874 18.3621 281.807 23.2952 287.88 23.2952C293.952 23.2952 298.886 18.3621 298.886 12.2895C298.886 6.21686 293.952 1.28376 287.88 1.28376Z" fill="#42E8FF"/>
<path d="M287.88 19.0401C286.913 19.0401 286.106 18.8526 285.442 18.4775C284.779 18.1025 284.274 17.5976 283.927 16.9774C283.581 16.3572 283.408 15.6792 283.408 14.958H285.067C285.067 15.7513 285.327 16.386 285.831 16.862C286.336 17.3236 287.029 17.5688 287.894 17.5688C288.471 17.5688 288.962 17.4678 289.394 17.2515C289.813 17.0351 290.144 16.7322 290.375 16.3427C290.606 15.9533 290.721 15.4917 290.721 14.958C290.721 14.1647 290.462 13.5156 289.957 13.0251C289.452 12.5347 288.76 12.2895 287.909 12.2895C287.548 12.2895 287.231 12.3328 286.971 12.4193C286.711 12.5059 286.481 12.6213 286.279 12.7511L285.428 11.2365L290.332 7.64489L290.159 7.32756H283.913V5.88513H291.745V8.22186L287.678 11.1788L286.452 11.2365C286.654 11.1644 286.87 11.1067 287.115 11.0634C287.36 11.0202 287.635 10.9913 287.966 10.9913C288.904 10.9913 289.697 11.1644 290.361 11.525C291.024 11.8712 291.515 12.3472 291.861 12.9386C292.207 13.53 292.38 14.1647 292.38 14.857V15.1022C292.38 15.7802 292.207 16.4293 291.861 17.0207C291.515 17.6265 291.01 18.1169 290.346 18.4919C289.683 18.867 288.861 19.0545 287.894 19.0545L287.88 19.0401Z" fill="white"/>
<path d="M0.0146484 33.9259H24.0455L7.22678 57.9567H0.0146484V33.9259Z" fill="url(#paint0_radial_207_816)"/>
<path d="M48.0618 33.9258H24.0454L40.8641 9.90942H48.0618V33.9258Z" fill="url(#paint1_radial_207_816)"/>
<path d="M24.0164 9.88062V33.9115L0 17.0928V9.88062H24.0164Z" fill="url(#paint2_radial_207_816)"/>
<path d="M24.0454 57.9567V33.9259L48.0618 50.759V57.9567H24.0454Z" fill="url(#paint3_radial_207_816)"/>
</g>
<defs>
<radialGradient id="paint0_radial_207_816" cx="0" cy="0" r="1" gradientUnits="userSpaceOnUse" gradientTransform="translate(23.9445 33.6518) scale(33.0027)">
<stop stop-color="#42E8FF"/>
<stop offset="1" stop-color="#A164FF"/>
</radialGradient>
<radialGradient id="paint1_radial_207_816" cx="0" cy="0" r="1" gradientUnits="userSpaceOnUse" gradientTransform="translate(23.9444 33.6518) scale(33.0027 33.0027)">
<stop stop-color="#42E8FF"/>
<stop offset="1" stop-color="#A164FF"/>
</radialGradient>
<radialGradient id="paint2_radial_207_816" cx="0" cy="0" r="1" gradientUnits="userSpaceOnUse" gradientTransform="translate(23.9443 33.6518) scale(33.0027 33.0027)">
<stop stop-color="#A164FF"/>
<stop offset="1" stop-color="#42E8FF"/>
</radialGradient>
<radialGradient id="paint3_radial_207_816" cx="0" cy="0" r="1" gradientUnits="userSpaceOnUse" gradientTransform="translate(23.9444 33.6518) scale(33.0027 33.0027)">
<stop stop-color="#A164FF"/>
<stop offset="1" stop-color="#42E8FF"/>
</radialGradient>
<clipPath id="clip0_207_816">
<rect width="300.169" height="58" fill="white"/>
</clipPath>
</defs>
</svg>
