<svg width="290" height="56" viewBox="0 0 290 56" fill="none" xmlns="http://www.w3.org/2000/svg">
<g clip-path="url(#clip0_191_879)">
<path d="M218.647 9.5072V16.0735H241.147L234.581 9.5072H218.647Z" fill="white"/>
<path d="M257.08 9.5072H241.147V16.0735H257.08V9.5072Z" fill="white"/>
<path d="M241.147 16.0735H234.581V56.0001H241.147V16.0735Z" fill="white"/>
<path d="M173.446 49.4495H149.063V56.0157H173.446V49.4495Z" fill="white"/>
<path d="M142.482 49.4494L149.048 56.0001V9.5072H142.482V49.4494Z" fill="white"/>
<path d="M212.844 49.4495H183.793V56.0157H212.844V49.4495Z" fill="white"/>
<path d="M212.844 9.5072H183.793V16.0735H212.844V9.5072Z" fill="white"/>
<path d="M177.227 56.0001L183.793 49.4494V36.0368H208.176V29.4705H183.793V9.5072L177.227 16.0735V56.0001Z" fill="white"/>
<path d="M138.654 9.5072H109.604V16.0735H138.654V9.5072Z" fill="white"/>
<path d="M109.604 9.5072L103.038 16.0735V41.0004V49.4494V56.0001H109.604V44.8437L138.639 24.5069V16.0735L109.604 36.4102V9.5072Z" fill="white"/>
<path d="M99.1943 49.4339H63.5933V56.0001H99.1943V49.4339V41.0004L63.5933 16.0735V24.5069L99.1943 49.4339Z" fill="white"/>
<path d="M63.5933 16.0735H99.1943V9.5072H68.1834L63.5933 16.0735Z" fill="white"/>
<path d="M278.008 23.7289C271.473 23.7289 266.136 18.4074 266.136 11.8567C266.136 5.30597 271.458 -0.0155029 278.008 -0.0155029C284.559 -0.0155029 289.881 5.30597 289.881 11.8567C289.881 18.4074 284.559 23.7289 278.008 23.7289ZM278.008 1.24485C272.158 1.24485 267.381 6.00617 267.381 11.8722C267.381 17.7383 272.142 22.4996 278.008 22.4996C283.874 22.4996 288.636 17.7383 288.636 11.8722C288.636 6.00617 283.874 1.24485 278.008 1.24485Z" fill="white"/>
<path d="M277.704 17.6968C276.83 17.6968 276.088 17.5261 275.48 17.1848C274.872 16.8435 274.408 16.3901 274.088 15.8248C273.779 15.2595 273.624 14.6461 273.624 13.9848H275.128C275.128 14.7101 275.358 15.2861 275.816 15.7128C276.286 16.1395 276.915 16.3528 277.704 16.3528C278.227 16.3528 278.68 16.2568 279.064 16.0648C279.448 15.8728 279.747 15.6008 279.96 15.2488C280.174 14.8861 280.28 14.4648 280.28 13.9848C280.28 13.2595 280.046 12.6728 279.576 12.2248C279.118 11.7768 278.499 11.5528 277.72 11.5528C277.39 11.5528 277.102 11.5955 276.856 11.6808C276.622 11.7555 276.414 11.8515 276.232 11.9688L275.464 10.5928L279.928 7.32881L279.768 7.04081H274.088V5.72881H281.208V7.85681L277.512 10.5448L276.392 10.5928C276.574 10.5288 276.771 10.4755 276.984 10.4328C277.208 10.3901 277.47 10.3688 277.768 10.3688C278.622 10.3688 279.347 10.5288 279.944 10.8488C280.542 11.1688 280.995 11.5955 281.304 12.1288C281.624 12.6621 281.784 13.2435 281.784 13.8728V14.0968C281.784 14.7155 281.624 15.3021 281.304 15.8568C280.995 16.4008 280.536 16.8435 279.928 17.1848C279.331 17.5261 278.59 17.6968 277.704 17.6968Z" fill="white"/>
<path d="M0.015625 32.7692H23.2154L6.97089 55.9689H0.015625V32.7692Z" fill="white"/>
<path d="M46.4151 32.7691H23.2153L39.4598 9.56934H46.4151V32.7691Z" fill="white"/>
<path d="M23.1998 9.55383V32.7536L0 16.4935V9.55383H23.1998Z" fill="white"/>
<path d="M23.2153 55.9689V32.7692L46.4151 49.0137V55.9689H23.2153Z" fill="white"/>
</g>
<defs>
<clipPath id="clip0_191_879">
<rect width="289.865" height="56" fill="white"/>
</clipPath>
</defs>
</svg>
